<?xml version="1.0" standalone="no"?>
<!DOCTYPE svg PUBLIC "-//W3C//DTD SVG 20010904//EN"
 "http://www.w3.org/TR/2001/REC-SVG-20010904/DTD/svg10.dtd">
<svg version="1.0" xmlns="http://www.w3.org/2000/svg"
 width="1918.000000pt" height="771.000000pt" viewBox="0 0 1918.000000 771.000000"
 preserveAspectRatio="xMidYMid meet">

<g transform="translate(0.000000,771.000000) scale(0.100000,-0.100000)"
fill="#000000" stroke="none">
<path d="M19175 3855 c0 -2123 1 -2993 2 -1933 2 1059 2 2796 0 3860 -1 1063
-2 196 -2 -1927z"/>
<path d="M18340 7190 c-15 -15 -20 -32 -18 -60 1 -22 6 -40 11 -40 5 0 7 7 3
15 -4 12 4 15 44 15 28 0 50 5 50 10 0 6 -20 10 -45 10 -38 0 -45 3 -45 20 0
29 42 47 75 32 20 -9 25 -19 26 -49 1 -21 1 -41 0 -45 0 -5 3 -8 9 -8 17 0 4
92 -16 107 -26 19 -71 16 -94 -7z"/>
<path d="M1073 7174 c-8 -21 13 -42 28 -27 13 13 5 43 -11 43 -6 0 -13 -7 -17
-16z"/>
<path d="M18267 7133 c-4 -3 -7 -55 -7 -115 l0 -108 130 0 131 0 -3 113 c-3
108 -4 112 -25 115 -13 2 -23 -1 -23 -7 0 -6 8 -11 18 -11 14 0 17 -8 15 -42
-1 -24 -2 -69 -2 -100 l-1 -58 -110 0 -110 0 -1 58 c0 31 -1 76 -2 100 -2 34
1 42 15 42 10 0 18 5 18 10 0 11 -33 14 -43 3z"/>
<path d="M16682 7118 c-18 -18 -15 -31 18 -60 17 -14 30 -22 30 -17 0 5 -11
16 -25 25 -31 20 -29 46 5 55 21 6 22 7 5 8 -12 1 -26 -4 -33 -11z"/>
<path d="M16763 7060 c0 -41 2 -58 4 -37 4 31 8 37 28 37 20 0 24 -6 28 -37 2
-21 4 -4 4 37 0 41 -2 60 -4 43 -4 -27 -9 -33 -28 -33 -19 0 -24 6 -28 33 -2
17 -4 -2 -4 -43z"/>
<path d="M16871 7116 c-19 -22 -10 -107 12 -120 29 -18 61 27 54 78 -7 52 -40
73 -66 42z m53 -29 c13 -37 -3 -82 -29 -82 -16 0 -21 8 -23 44 -2 24 -1 50 2
58 9 23 40 11 50 -20z"/>
<path d="M16962 7058 c0 -40 3 -59 5 -41 3 24 10 33 26 35 18 2 22 10 22 38 0
31 -3 35 -27 38 l-28 3 2 -73z m48 32 c0 -23 -4 -30 -20 -30 -16 0 -20 7 -20
30 0 23 4 30 20 30 16 0 20 -7 20 -30z"/>
<path d="M17427 7123 c-15 -14 -6 -48 19 -68 29 -23 25 -51 -9 -58 l-22 -4 22
-2 c14 0 27 8 34 21 10 19 8 25 -15 44 -32 29 -34 61 -3 67 20 4 20 4 1 6 -11
0 -24 -2 -27 -6z"/>
<path d="M17503 7060 c0 -41 2 -58 4 -37 2 20 2 54 0 75 -2 20 -4 3 -4 -38z"/>
<path d="M17552 7118 c-7 -7 -12 -33 -12 -58 0 -53 13 -70 52 -70 25 0 28 3
28 35 0 27 -4 35 -17 34 -11 0 -13 -3 -5 -6 20 -8 15 -53 -6 -53 -28 0 -42 21
-42 61 0 38 11 53 45 62 16 4 15 5 -5 6 -15 0 -31 -4 -38 -11z"/>
<path d="M17642 7058 l1 -73 6 65 6 65 24 -58 c13 -31 27 -60 32 -63 5 -3 8
28 7 68 l-1 73 -6 -59 -6 -60 -23 57 c-13 31 -28 57 -33 57 -5 0 -8 -33 -7
-72z"/>
<path d="M17793 7060 c0 -41 2 -58 4 -37 2 20 2 54 0 75 -2 20 -4 3 -4 -38z"/>
<path d="M17832 7058 l1 -73 6 59 6 60 24 -58 c13 -31 26 -55 28 -52 6 5 -54
136 -62 136 -3 0 -4 -33 -3 -72z"/>
<path d="M785 7090 c-4 -7 -3 -16 3 -22 14 -14 45 -2 40 15 -6 16 -34 21 -43
7z"/>
<path d="M1367 7094 c-14 -15 -6 -34 14 -34 14 0 19 5 17 17 -3 18 -20 27 -31
17z"/>
<path d="M18382 7035 c-16 -34 -15 -38 8 -53 19 -11 20 -10 20 33 0 50 -11 58
-28 20z m18 -25 c0 -5 -5 -10 -11 -10 -5 0 -7 5 -4 10 3 6 8 10 11 10 2 0 4
-4 4 -10z"/>
<path d="M16720 7012 c0 -7 -12 -13 -27 -13 -26 -2 -26 -2 -4 -6 24 -5 50 11
38 24 -4 3 -7 1 -7 -5z"/>
<path d="M951 6810 c-22 -50 -41 -93 -41 -95 0 -3 83 -5 185 -5 l184 0 -40 88
c-22 48 -45 91 -50 97 -6 6 -25 1 -52 -14 l-43 -23 -42 21 c-22 11 -45 21 -50
21 -5 0 -28 -41 -51 -90z"/>
<path d="M560 4810 l0 -1500 2940 0 2940 0 0 1500 0 1500 -2940 0 -2940 0 0
-1500z m2134 1474 c19 -50 -6 -72 -111 -98 -32 -8 -76 -20 -98 -26 -21 -7 -64
-10 -94 -8 -80 7 -94 34 -59 121 l10 27 173 0 c148 0 174 -2 179 -16z m653 1
c-15 -8 -34 -12 -42 -8 -9 3 -15 -1 -15 -11 0 -9 7 -16 15 -16 8 0 15 -4 15
-10 0 -5 -7 -10 -15 -10 -8 0 -15 -5 -15 -10 0 -6 -10 -8 -23 -5 -15 4 -28 1
-37 -10 -11 -13 -10 -15 2 -10 18 7 32 -21 16 -31 -7 -4 -14 -2 -16 4 -2 7 -8
10 -12 7 -5 -3 -7 8 -5 24 3 25 1 28 -16 24 -14 -4 -18 -11 -14 -22 4 -9 9
-22 12 -30 5 -10 0 -12 -15 -6 -13 3 -22 2 -22 -4 0 -5 -14 -9 -30 -9 -34 1
-51 -9 -33 -20 8 -5 9 -13 3 -22 -8 -12 -10 -12 -10 -1 0 11 -3 11 -16 0 -14
-11 -18 -11 -29 4 -6 9 -15 14 -18 10 -4 -3 -7 2 -7 12 0 24 28 55 51 55 21 0
36 39 19 50 -8 5 -7 9 5 14 26 9 42 7 25 -4 -20 -13 -10 -12 29 1 17 6 31 15
31 20 0 15 42 10 55 -7 10 -14 13 -13 28 10 15 22 25 26 65 26 l47 0 -28 -15z
m179 -1 c-3 -9 -6 -21 -6 -26 0 -19 -14 1 -15 22 -1 11 5 20 13 20 9 0 12 -6
8 -16z m349 6 c-3 -6 1 -13 9 -16 9 -3 16 -12 16 -20 0 -8 5 -14 10 -14 6 0
10 -7 10 -15 0 -8 7 -15 15 -15 8 0 15 -5 15 -10 0 -6 -12 -4 -27 4 -48 26
-53 32 -62 64 -8 26 -7 32 5 32 8 0 12 -5 9 -10z m125 -11 c0 -24 -23 -21 -28
4 -2 10 3 17 12 17 10 0 16 -9 16 -21z m120 11 c0 -5 -12 -21 -26 -35 -24 -24
-28 -25 -42 -11 -14 14 -18 14 -36 -2 -18 -16 -19 -16 -13 1 4 10 7 23 7 29 0
6 7 8 15 4 8 -3 15 0 15 7 0 8 15 13 40 14 22 1 40 -2 40 -7z m-660 -29 c0 -5
-7 -11 -15 -15 -15 -5 -20 5 -8 17 9 10 23 9 23 -2z m2518 -3 c21 -28 22 -54
2 -76 -26 -28 -73 -29 -100 -2 -25 25 -25 31 1 64 22 28 78 36 97 14z m-2240
-65 c-5 -62 -28 -53 -28 12 0 51 1 55 16 41 10 -10 14 -29 12 -53z m-271 13
c15 -13 25 -27 21 -31 -4 -4 -14 0 -23 9 -20 19 -59 30 -77 21 -7 -3 -4 1 6 9
27 22 40 20 73 -8z m48 15 c3 -5 1 -12 -5 -16 -5 -3 -10 1 -10 9 0 18 6 21 15
7z m-455 -4 c0 -2 -18 -18 -40 -36 -48 -38 -53 -32 -8 10 29 25 48 36 48 26z
m590 -27 c0 -5 -4 -10 -10 -10 -5 0 -10 5 -10 10 0 6 5 10 10 10 6 0 10 -4 10
-10z m185 0 c3 -5 -1 -10 -10 -10 -9 0 -13 5 -10 10 3 6 8 10 10 10 2 0 7 -4
10 -10z m165 0 c0 -5 -4 -10 -10 -10 -5 0 -10 5 -10 10 0 6 5 10 10 10 6 0 10
-4 10 -10z m-443 -62 c-3 -7 -5 -2 -5 12 0 14 2 19 5 13 2 -7 2 -19 0 -25z
m103 22 c0 -5 -2 -10 -4 -10 -3 0 -8 5 -11 10 -3 6 -1 10 4 10 6 0 11 -4 11
-10z m57 -52 c-3 -8 -6 -5 -6 6 -1 11 2 17 5 13 3 -3 4 -12 1 -19z m-719 -4
c-13 -13 -14 -23 -7 -42 13 -34 -11 -112 -34 -112 -6 0 -36 -22 -66 -48 -31
-27 -72 -57 -91 -67 -19 -10 -55 -38 -81 -64 -25 -25 -57 -52 -72 -58 -80 -37
-78 -36 -72 -60 3 -14 -1 -33 -11 -48 -20 -31 -7 -33 51 -6 48 21 140 43 300
72 66 11 123 23 128 26 17 10 198 53 225 53 64 -1 98 -70 72 -146 -16 -45 -49
-61 -165 -79 -16 -3 -35 -12 -41 -20 -7 -9 -14 -11 -15 -6 -7 20 -169 -33
-169 -55 0 -12 -95 -38 -109 -30 -5 4 -12 2 -16 -4 -3 -5 -19 -10 -35 -10 -17
0 -30 -7 -34 -17 -5 -12 -9 -14 -14 -6 -10 15 -52 5 -46 -10 6 -17 -6 -30 -39
-45 -42 -18 -105 12 -148 72 -23 30 -42 45 -57 46 -26 0 -37 20 -28 54 4 16
20 30 48 42 36 15 39 18 21 22 -24 4 -77 -30 -89 -57 -4 -9 -8 -48 -8 -88 -1
-59 2 -73 16 -76 9 -3 24 -19 33 -37 15 -30 15 -33 -2 -52 -17 -19 -17 -20 5
-38 33 -27 98 -34 259 -26 l143 6 -2 -262 -3 -263 -24 -3 c-13 -2 -27 2 -32 9
-11 19 -48 21 -65 4 -9 -8 -24 -15 -35 -15 -11 0 -27 -6 -34 -14 -8 -7 -36
-17 -62 -21 -26 -4 -74 -15 -105 -26 -84 -28 -126 -25 -226 18 -28 12 -40 12
-87 -2 -30 -8 -55 -21 -56 -28 -3 -28 4 -63 13 -75 8 -9 6 -18 -6 -30 -9 -10
-16 -23 -16 -29 0 -6 -15 -27 -34 -47 -40 -42 -71 -46 -112 -13 -40 31 -104
98 -104 108 0 9 -28 14 -67 10 -27 -2 -83 36 -84 58 0 9 -8 -11 -18 -43 -14
-47 -19 -56 -25 -40 -7 18 -8 18 -17 2 -6 -10 -14 -18 -19 -18 -16 0 -60 50
-60 69 0 23 -26 75 -45 91 -21 17 -19 -4 1 -25 13 -12 14 -19 5 -28 -8 -8 -11
-7 -11 6 0 28 -27 19 -39 -13 -7 -23 -16 -30 -35 -30 -33 0 -40 -14 -23 -49
20 -41 4 -65 -22 -33 l-19 22 -10 -27 c-10 -27 -10 -27 -11 -4 -1 23 -2 23
-19 8 -16 -15 -24 -15 -71 -3 -47 12 -53 12 -61 -4 -5 -10 -6 -20 -3 -24 3 -3
1 -6 -5 -6 -7 0 -12 -6 -12 -13 0 -18 -37 -57 -54 -57 -7 0 -25 11 -40 25 -18
17 -26 20 -26 10 0 -17 -16 -20 -25 -5 -3 6 -14 10 -23 10 -14 0 -14 -2 -3 -9
8 -5 11 -16 7 -26 -5 -14 -9 -15 -21 -5 -8 7 -12 16 -9 21 14 23 -42 -7 -81
-43 -16 -16 -33 -28 -37 -28 -4 0 -10 -9 -13 -20 -3 -11 -11 -20 -17 -20 -6 0
-20 -7 -30 -17 -10 -9 -21 -13 -24 -10 -4 4 12 25 35 48 23 23 39 44 37 47
-12 11 -54 -10 -59 -29 -8 -28 -57 -23 -73 9 -6 12 -19 29 -29 36 -12 9 -19
28 -21 54 -1 22 -5 45 -8 51 -4 6 -6 36 -5 66 1 30 -1 58 -4 62 -4 3 -7 -37
-7 -90 0 -99 -13 -129 -25 -57 -5 31 -11 40 -26 40 -11 0 -19 -6 -18 -12 3
-24 -1 -38 -11 -38 -6 0 -10 61 -10 163 l0 162 93 29 c71 22 115 29 192 31 89
2 117 8 256 53 99 31 182 65 225 91 58 35 76 41 124 41 94 0 200 67 389 248
80 75 187 178 239 227 53 50 134 127 181 172 47 45 113 102 146 128 33 25 83
63 110 85 28 23 75 55 105 72 30 17 73 46 95 63 47 38 138 95 178 113 19 8 34
9 47 2 13 -7 19 -6 24 5 3 8 13 15 23 15 16 0 16 -1 1 -16z m-1963 -94 c4 -6
-7 -10 -25 -10 -18 0 -29 4 -25 10 3 6 15 10 25 10 10 0 22 -4 25 -10z m2716
-147 c75 -78 241 -261 312 -345 52 -61 52 -63 8 -110 -22 -24 -34 -28 -80 -28
l-55 0 38 39 39 40 -28 33 c-51 61 -160 182 -204 228 -35 35 -40 38 -26 15 10
-16 35 -46 54 -66 51 -50 164 -178 175 -196 6 -11 -3 -26 -30 -54 -35 -36 -43
-39 -91 -39 -44 0 -54 4 -64 22 l-12 23 -10 -23 c-12 -27 -67 -32 -67 -6 0 8
5 12 10 9 6 -3 10 -2 10 3 0 8 -22 22 -36 22 -2 0 -4 -11 -4 -25 0 -20 -5 -25
-25 -25 -18 0 -23 4 -19 15 7 16 -12 45 -29 45 -5 0 -2 -9 7 -19 10 -11 15
-25 11 -30 -10 -18 -25 -13 -35 12 l-9 22 0 -22 c-1 -22 -5 -23 -73 -23 l-72
0 -48 47 c-26 26 -48 51 -48 56 0 5 21 34 48 65 27 32 38 51 26 44 -11 -6 -26
-18 -34 -26 -25 -32 -30 -15 -5 18 19 25 23 36 14 42 -7 4 -15 2 -17 -4 -2 -7
-8 -12 -13 -12 -20 0 14 41 149 178 77 78 145 142 153 142 8 0 44 -30 80 -67z
m-1531 -36 c0 -61 -72 -92 -78 -35 -3 22 3 32 29 47 37 23 49 20 49 -12z
m-662 1 c18 -18 15 -25 -14 -32 -31 -8 -49 5 -41 28 7 19 38 21 55 4z m-786
-60 c65 -28 90 -58 95 -115 4 -43 1 -53 -31 -94 -36 -48 -47 -53 -132 -65 -47
-6 -52 -4 -72 21 -15 19 -27 25 -42 20 -19 -6 -20 -3 -20 103 0 91 3 111 18
125 45 41 97 42 184 5z m4316 -6 c3 -18 -1 -22 -21 -22 -21 0 -23 4 -19 25 6
32 36 30 40 -3z m-3527 -62 c20 -19 29 -38 27 -52 -2 -19 -10 -24 -45 -26 -70
-5 -111 57 -61 92 32 23 45 20 79 -14z m3217 -252 c55 -59 85 -224 47 -261
-20 -21 -85 -41 -95 -31 -5 5 -6 78 -3 162 6 161 11 172 51 130z m-1398 -33
c31 -32 32 -35 13 -35 -12 0 -24 6 -27 13 -5 10 -7 10 -12 0 -10 -22 -52 -15
-70 12 -20 30 -12 44 11 21 22 -22 35 -20 35 4 0 28 11 25 50 -15z m2965 22
c11 -1 24 -13 29 -29 8 -22 6 -32 -10 -49 -33 -37 -69 -49 -136 -46 -53 2 -68
-2 -95 -22 -42 -32 -142 -41 -163 -16 -13 16 -10 21 25 52 35 30 45 33 92 32
45 -2 56 1 69 20 13 19 61 46 114 65 8 2 24 3 35 0 11 -3 29 -6 40 -7z m-2195
-617 l0 -550 -645 0 -645 0 0 550 0 550 645 0 645 0 0 -550z m778 268 c7 -7
12 -20 12 -29 0 -25 -61 -69 -104 -76 -39 -6 -44 -14 -22 -32 25 -21 28 -65 7
-142 -11 -41 -23 -99 -26 -131 -6 -49 -4 -60 16 -87 29 -39 38 -143 18 -190
-8 -17 -17 -31 -20 -31 -7 0 -15 56 -25 175 -4 44 -10 85 -14 90 -13 16 -48
214 -50 275 -2 80 -3 80 29 80 23 0 28 4 25 18 -7 23 13 46 61 71 45 24 75 27
93 9z m361 -14 c37 -31 41 -72 10 -99 -16 -16 -19 -26 -14 -57 9 -51 -11 -58
-71 -23 -36 21 -54 26 -82 21 -114 -18 -118 -18 -131 -3 -10 13 -8 22 13 54
14 21 30 53 37 71 7 20 19 34 32 36 12 3 42 9 67 14 78 17 106 14 139 -14z
m515 -209 c44 -9 56 -23 45 -52 -9 -25 -17 -27 -51 -13 -43 17 -69 45 -62 63
4 10 12 16 20 13 7 -3 28 -8 48 -11z m462 -173 c5 -33 2 -48 -12 -63 -25 -27
-40 -24 -53 12 -14 41 -14 65 1 106 l12 33 23 -23 c13 -13 25 -40 29 -65z
m-4775 -201 c22 -18 22 -20 6 -26 -19 -8 -60 21 -51 36 8 14 20 11 45 -10z
m4481 -8 c43 -38 0 -113 -66 -113 -58 0 -137 22 -147 42 -11 20 -4 38 14 38 7
0 28 11 47 25 43 30 123 34 152 8z m-5305 -140 c-3 -10 -5 -4 -5 12 0 17 2 24
5 18 2 -7 2 -21 0 -30z m1909 18 c-3 -4 -1 -13 4 -20 9 -16 30 -6 30 15 0 8 9
14 21 14 18 0 19 -3 9 -15 -15 -18 -5 -35 21 -35 24 0 24 -9 2 -26 -10 -7 -15
-16 -11 -20 4 -4 14 -1 23 6 10 8 15 9 15 1 0 -6 5 -11 10 -11 6 0 10 13 10
29 0 17 5 33 11 36 15 10 24 -2 12 -17 -12 -14 0 -58 15 -58 5 0 24 7 42 16
27 14 34 14 41 3 5 -8 8 -24 6 -37 -5 -28 4 -35 38 -26 25 6 36 34 13 34 -6 0
-9 3 -5 6 3 4 13 4 21 1 12 -5 14 -12 6 -31 -7 -20 -6 -26 8 -30 9 -3 -16 -3
-57 0 -41 3 -80 9 -85 13 -6 5 -23 9 -38 9 -61 -1 -180 85 -190 136 -4 19 -1
22 14 18 10 -2 16 -7 14 -11z m209 -61 c-3 -5 -11 -10 -16 -10 -6 0 -7 5 -4
10 3 6 11 10 16 10 6 0 7 -4 4 -10z m2115 -48 c0 -4 -10 -25 -23 -47 -16 -28
-45 -53 -104 -90 -45 -27 -85 -53 -88 -57 -4 -3 -9 -32 -11 -65 -5 -61 -25
-103 -48 -103 -7 0 -25 9 -39 20 -34 27 -41 16 -64 -94 l-18 -89 -80 7 c-144
11 -155 15 -155 47 0 20 5 29 16 29 13 0 14 3 5 13 -7 9 -7 17 0 24 5 5 12 33
16 61 3 29 10 52 14 52 5 0 9 6 9 14 0 8 7 22 16 30 10 11 11 16 3 16 -7 0
-10 3 -7 6 3 3 50 7 104 10 220 11 260 36 337 211 7 16 20 23 46 25 36 3 71
-7 71 -20z m1234 22 c23 -9 20 -34 -4 -34 -13 0 -20 7 -20 20 0 22 1 23 24 14z
m-534 -32 c55 -28 100 -78 100 -114 0 -10 -16 -42 -35 -71 -28 -43 -34 -59
-29 -84 19 -93 -63 -223 -141 -223 -32 0 -45 7 -76 40 -60 63 -73 94 -63 154
4 28 8 89 8 136 1 73 4 90 25 118 53 75 119 89 211 44z m-2386 7 c-3 -5 0 -9
5 -9 6 0 11 4 11 9 0 5 51 9 115 8 63 -1 115 -4 115 -8 0 -4 9 -5 20 -2 21 6
28 -11 9 -22 -5 -4 -9 -14 -7 -23 2 -13 13 -16 48 -14 25 1 52 -2 60 -8 11 -7
-5 -10 -57 -10 -66 0 -71 1 -66 20 5 19 -11 50 -27 50 -4 0 -10 -9 -13 -20 -3
-11 -1 -20 5 -20 5 0 7 -4 4 -9 -4 -5 -62 -9 -131 -10 -69 0 -130 -3 -135 -6
-6 -3 -16 -3 -22 2 -7 4 -43 6 -80 4 -37 -1 -81 0 -97 4 l-30 6 22 35 22 34
118 -1 c68 0 115 -5 111 -10z m459 -2 c3 2 13 1 23 -5 14 -8 13 -10 -11 -16
-19 -5 -31 -3 -37 6 -8 10 -11 10 -15 1 -2 -7 -18 -13 -33 -13 -16 0 -31 -4
-35 -9 -7 -12 -45 -10 -45 2 0 30 77 51 126 35 12 -4 24 -4 27 -1z m-1923 -12
c0 -8 -14 -17 -35 -21 -19 -3 -35 -10 -35 -14 0 -12 -49 -22 -72 -14 -19 6
-19 7 -2 25 31 35 144 54 144 24z m2060 -3 c0 -13 -12 -22 -22 -16 -10 6 -1
24 13 24 5 0 9 -4 9 -8z m433 1 c-7 -2 -19 -2 -25 0 -7 3 -2 5 12 5 14 0 19
-2 13 -5z m146 -2 c9 -6 10 -11 2 -15 -14 -9 -51 2 -51 15 0 11 30 12 49 0z
m-494 -11 c3 -5 -1 -10 -9 -10 -9 0 -16 5 -16 10 0 6 4 10 9 10 6 0 13 -4 16
-10z m1283 -37 c23 -26 30 -42 26 -57 -9 -28 -7 -27 -51 -33 -81 -10 -149 80
-91 122 34 24 77 12 116 -32z m-3286 -63 c69 0 78 -2 78 -19 0 -23 -46 -70
-76 -77 -23 -6 -65 -2 -132 12 -48 10 -62 -8 -62 -76 0 -45 -5 -64 -25 -91
-46 -63 -51 -80 -32 -94 10 -7 40 -15 67 -19 55 -7 76 -30 66 -72 -11 -41 -42
-53 -116 -43 -76 11 -134 37 -138 62 -2 11 6 29 18 42 22 24 22 24 3 57 -14
25 -29 35 -58 41 -73 16 -105 34 -105 61 0 33 43 82 83 95 18 5 65 15 106 21
41 6 79 14 85 18 6 4 18 7 26 8 8 1 25 2 37 3 14 0 20 6 17 14 -3 8 9 29 26
47 23 25 34 30 42 22 7 -7 44 -12 90 -12z m4228 -118 c0 -9 -7 -11 -22 -7 -31
9 -72 50 -64 64 8 13 85 -38 86 -57z m-1021 -52 c14 0 41 -59 41 -92 0 -40
-31 -104 -66 -135 -66 -60 -164 6 -164 110 0 50 26 106 54 112 32 7 99 12 114
8 8 -2 17 -3 21 -3z m-3783 -48 c25 -39 -39 -74 -77 -43 -18 15 -20 21 -10 39
15 28 71 31 87 4z m1704 -103 c0 -6 8 -8 19 -4 10 3 26 3 35 -1 15 -6 15 -7
-1 -20 -10 -7 -31 -14 -46 -14 -16 0 -54 -7 -84 -16 -60 -18 -77 -13 -47 14
38 34 72 46 89 32 12 -10 15 -10 15 4 0 9 5 16 10 16 6 0 10 -5 10 -11z
m-1880 -51 c0 -19 -2 -20 -10 -8 -13 19 -13 30 0 30 6 0 10 -10 10 -22z m3624
-30 c14 -17 26 -38 26 -45 0 -21 34 -87 53 -103 12 -10 17 -25 15 -40 -4 -24
-5 -23 -21 12 -9 20 -26 43 -36 50 -11 8 -24 26 -30 40 -6 16 -29 34 -65 52
-31 15 -56 31 -56 35 0 11 41 30 66 30 12 1 32 -13 48 -31z m-3956 -125 c4
-42 -24 -60 -103 -66 -117 -8 -138 26 -45 74 41 22 66 28 100 27 43 -3 45 -5
48 -35z m1812 -17 c0 -10 7 -12 22 -8 26 6 17 -12 -14 -29 -16 -9 -19 -8 -13
2 6 9 3 10 -11 5 -47 -18 -74 -19 -80 -1 -10 24 20 45 63 45 22 0 33 -5 33
-14z m-360 -42 c30 -8 64 -17 74 -19 11 -3 29 -13 40 -23 22 -20 124 -70 189
-93 20 -7 37 -19 37 -26 0 -8 11 -18 25 -23 14 -5 25 -12 25 -15 0 -11 -145
-2 -152 9 -5 8 -8 7 -8 -1 0 -7 -7 -13 -16 -13 -13 0 -14 3 -5 14 10 11 7 14
-12 12 -15 0 -23 -6 -20 -13 4 -9 -8 -13 -38 -13 -40 1 -42 2 -26 14 18 14 18
15 1 24 -15 8 -16 13 -6 25 9 10 10 17 2 22 -5 3 -10 -1 -10 -10 0 -12 -13 -5
-45 22 -25 20 -45 43 -45 50 0 20 -25 26 -49 13 -17 -9 -21 -8 -21 5 0 9 -4
13 -10 10 -17 -10 -12 -48 5 -41 8 3 15 1 15 -3 0 -5 -7 -11 -15 -15 -29 -11
-6 -78 24 -68 7 2 17 -1 21 -8 6 -9 10 -7 15 9 3 11 11 21 17 21 5 0 8 -6 5
-14 -7 -17 11 -36 35 -36 10 0 18 -4 18 -10 0 -14 -33 -13 -48 2 -9 9 -15 9
-24 0 -7 -7 -30 -12 -51 -12 -33 0 -37 2 -28 14 15 18 -5 34 -22 17 -17 -17
-30 -13 -25 7 4 16 -1 19 -29 20 -30 1 -33 -1 -28 -18 7 -23 2 -25 -25 -8 -16
10 -24 10 -40 0 -12 -7 -20 -8 -20 -2 0 5 -5 10 -11 10 -5 0 -8 -4 -5 -9 4 -5
-3 -7 -13 -4 -13 3 -21 -1 -24 -14 -4 -14 -5 -13 -6 6 l-1 23 -19 -23 c-11
-13 -23 -20 -27 -16 -18 18 61 110 148 172 56 39 69 44 118 45 30 0 80 -7 110
-16z m4038 -34 c13 -27 31 -47 44 -50 29 -7 61 -52 52 -73 -3 -10 -19 -24 -35
-32 -34 -18 -152 -20 -179 -3 -15 10 -26 10 -53 0 -18 -7 -58 -12 -88 -12
l-54 1 46 22 c25 13 66 44 90 70 24 27 61 66 81 88 46 50 66 48 96 -11z m-710
11 c22 -2 13 -26 -15 -38 -38 -18 -51 -16 -64 8 -14 26 2 39 40 34 14 -1 32
-3 39 -4z m-703 -21 c3 -5 25 -7 50 -3 68 9 55 -12 -16 -26 -34 -7 -64 -9 -67
-5 -4 4 -2 9 5 11 7 2 9 11 6 19 -6 16 12 20 22 4z m-3599 -25 c3 -14 10 -25
14 -25 5 0 2 -14 -7 -31 -8 -16 -13 -41 -10 -55 l4 -24 -93 0 c-80 0 -94 2
-94 16 0 33 41 83 85 104 25 12 47 26 51 31 11 19 44 9 50 -16z m3754 10 c0
-8 -4 -15 -10 -15 -5 0 -10 7 -10 15 0 8 5 15 10 15 6 0 10 -7 10 -15z m225 5
c3 -5 -1 -10 -9 -10 -8 0 -18 5 -21 10 -3 6 1 10 9 10 8 0 18 -4 21 -10z m455
0 c30 -8 39 -18 60 -65 25 -56 25 -56 110 -70 19 -3 36 -8 39 -11 7 -6 -255
-5 -274 2 -19 8 -45 55 -45 84 0 23 42 70 62 70 7 0 29 -5 48 -10z m-420 -31
c0 -6 -4 -7 -10 -4 -5 3 -10 11 -10 16 0 6 5 7 10 4 6 -3 10 -11 10 -16z
m-293 5 c-3 -3 -12 -4 -19 -1 -8 3 -5 6 6 6 11 1 17 -2 13 -5z m-1734 -25 c4
-16 3 -18 -9 -8 -16 13 -19 29 -5 29 5 0 11 -9 14 -21z m1554 4 c2 -6 -13 -12
-36 -15 -43 -4 -44 -2 -9 17 26 15 40 14 45 -2z m-2147 -23 c0 -5 -7 -7 -15
-4 -8 4 -15 8 -15 10 0 2 7 4 15 4 8 0 15 -4 15 -10z m115 0 c3 -5 16 -10 28
-10 13 0 17 -4 12 -9 -12 -11 -75 -2 -75 10 0 14 -48 11 -53 -3 -2 -7 -8 -9
-13 -5 -5 4 -2 12 6 17 20 13 87 13 95 0z m253 -22 c52 -2 18 -23 -57 -36 -69
-12 -89 -8 -70 14 6 7 15 11 20 9 4 -3 20 -3 34 1 20 5 24 11 19 28 -6 20 -5
20 8 3 8 -11 27 -19 46 -19z m178 7 c-22 -33 -15 -43 26 -38 l33 4 -30 -17
c-20 -12 -30 -13 -33 -5 -5 14 -32 15 -32 1 0 -6 -27 -10 -60 -10 -38 0 -60 4
-60 11 0 7 11 9 28 6 27 -5 55 3 53 17 -3 19 0 25 12 20 7 -2 22 4 32 16 10
11 25 20 33 20 12 0 12 -4 -2 -25z m2030 16 c5 -5 18 -11 29 -14 11 -3 -1 -5
-27 -6 -26 0 -50 -6 -53 -11 -4 -6 -15 -8 -25 -5 -10 3 -21 1 -25 -4 -4 -7
-15 -5 -31 6 -21 13 -27 14 -34 3 -6 -9 -15 -10 -36 -3 -25 8 -15 12 76 25 58
9 107 16 111 17 3 0 9 -3 15 -8z m-2326 -8 c0 -11 -58 -43 -76 -43 -8 0 -14 5
-14 10 0 6 8 10 18 10 9 0 28 7 42 14 32 18 30 17 30 9z m1805 -2 c-3 -5 -19
-12 -35 -16 -17 -4 -30 -13 -30 -21 0 -12 -4 -12 -20 -4 -27 15 -25 30 4 30
14 0 28 5 31 10 3 6 17 10 31 10 14 0 23 -4 19 -9z m635 -21 c0 -13 -12 -12
-32 4 -10 7 -15 16 -12 19 9 8 44 -11 44 -23z m-3055 11 c3 -5 1 -12 -5 -16
-5 -3 -10 1 -10 9 0 18 6 21 15 7z m2695 -15 c0 -10 -16 -17 -47 -21 -27 -3
-56 -10 -65 -16 -28 -15 -38 -11 -34 14 1 12 6 21 9 19 29 -12 41 -13 67 -2
16 6 33 9 39 6 5 -4 12 -2 16 4 9 14 15 12 15 -4z m-3480 -21 c0 -25 -1 -25
-87 -24 l-88 0 70 24 c93 31 105 31 105 0z m1255 15 c3 -6 -1 -7 -9 -4 -18 7
-21 14 -7 14 6 0 13 -4 16 -10z m-45 -10 c0 -5 -4 -10 -10 -10 -5 0 -10 5 -10
10 0 6 5 10 10 10 6 0 10 -4 10 -10z m1870 -15 c-7 -8 -27 -14 -44 -14 -21 1
-24 3 -11 6 11 3 24 9 30 14 5 5 15 9 23 9 12 0 12 -3 2 -15z"/>
<path d="M3194 6255 c-10 -8 -14 -15 -8 -15 6 0 17 7 24 15 16 19 9 19 -16 0z"/>
<path d="M2500 4883 c-28 -5 -52 -23 -29 -22 7 0 41 6 74 14 54 12 56 13 20
13 -22 0 -51 -3 -65 -5z"/>
<path d="M745 4754 c-25 -25 -11 -27 26 -5 29 18 31 21 12 21 -12 0 -29 -7
-38 -16z"/>
<path d="M701 4692 c-6 -12 -11 -27 -11 -34 1 -7 8 0 16 15 9 16 13 31 11 34
-3 2 -10 -4 -16 -15z"/>
<path d="M3685 5860 c3 -5 8 -10 11 -10 2 0 4 5 4 10 0 6 -5 10 -11 10 -5 0
-7 -4 -4 -10z"/>
<path d="M3555 5712 c-5 -4 -17 -16 -25 -26 -14 -18 -14 -19 7 -5 13 7 25 19
27 26 6 15 5 16 -9 5z"/>
<path d="M3750 5670 c-9 -6 -10 -10 -3 -10 6 0 15 5 18 10 8 12 4 12 -15 0z"/>
<path d="M3530 5575 c0 -8 2 -15 4 -15 2 0 6 7 10 15 3 8 1 15 -4 15 -6 0 -10
-7 -10 -15z"/>
<path d="M3611 5587 c2 -1 13 -9 24 -17 19 -14 19 -14 6 3 -7 9 -18 17 -24 17
-6 0 -8 -1 -6 -3z"/>
<path d="M3591 5558 c0 -16 1 -28 3 -28 2 0 13 -3 23 -6 17 -6 17 -6 1 7 -9 8
-18 23 -21 34 -4 15 -5 13 -6 -7z"/>
<path d="M3690 5554 c0 -14 4 -23 10 -19 6 3 10 15 10 26 0 10 -4 19 -10 19
-5 0 -10 -12 -10 -26z"/>
<path d="M3721 5564 c0 -11 3 -14 6 -6 3 7 2 16 -1 19 -3 4 -6 -2 -5 -13z"/>
<path d="M3775 5551 c-4 -12 -4 -25 -1 -28 3 -4 6 -1 6 7 0 10 3 10 15 0 19
-16 20 0 1 25 -13 18 -14 18 -21 -4z"/>
<path d="M4010 5503 c0 -4 10 -17 22 -30 l22 -23 -29 -30 c-37 -39 -27 -49 14
-13 37 33 38 40 6 76 -24 27 -35 33 -35 20z"/>
<path d="M3530 5409 c0 -5 5 -7 10 -4 6 3 10 8 10 11 0 2 -4 4 -10 4 -5 0 -10
-5 -10 -11z"/>
<path d="M3294 5188 c3 -29 7 -75 7 -103 l2 -50 6 50 c6 48 8 50 39 53 l32 3
0 -52 c0 -81 7 -54 13 54 4 60 3 97 -3 97 -6 0 -10 -20 -10 -45 0 -44 0 -45
-34 -45 l-34 0 6 45 c4 38 2 45 -13 45 -16 0 -17 -7 -11 -52z"/>
<path d="M3455 5208 c-4 -18 -13 -61 -22 -96 -8 -35 -13 -66 -10 -69 3 -3 9
11 12 31 6 31 11 36 35 36 24 0 29 -5 35 -37 4 -21 9 -33 11 -28 2 6 -3 33
-10 60 -8 28 -15 44 -15 38 -1 -7 -10 -13 -21 -13 -22 0 -26 16 -10 40 9 13
11 13 21 0 8 -11 9 -7 5 19 -3 18 -6 37 -6 42 0 23 -19 5 -25 -23z"/>
<path d="M3530 5230 c0 -5 7 -10 15 -10 8 0 15 -1 16 -2 0 -2 3 -41 6 -88 2
-47 7 -87 9 -89 2 -2 4 37 4 87 0 85 1 92 20 92 11 0 20 5 20 10 0 6 -20 10
-45 10 -25 0 -45 -4 -45 -10z"/>
<path d="M3652 5231 c-7 -4 -14 -23 -14 -41 -1 -25 6 -39 31 -59 17 -14 31
-34 31 -43 0 -21 -27 -37 -51 -31 -11 3 -19 1 -19 -5 0 -14 32 -20 58 -11 29
11 38 53 18 84 -9 14 -23 25 -31 25 -8 0 -18 8 -24 17 -14 25 5 53 35 53 14 0
22 4 19 10 -7 12 -35 13 -53 1z"/>
<path d="M3263 4625 c0 -44 2 -66 4 -50 7 57 13 75 28 75 10 0 15 -15 18 -50
l4 -50 -1 52 c-1 46 -4 53 -21 53 -13 0 -22 9 -26 25 -4 14 -6 -11 -6 -55z"/>
<path d="M3187 4683 c-15 -15 -5 -49 20 -69 31 -24 26 -53 -9 -55 -18 -1 -19
-2 -5 -6 22 -6 47 14 47 37 0 10 -12 25 -26 34 -31 21 -28 48 6 57 l25 7 -26
1 c-14 1 -29 -2 -32 -6z"/>
<path d="M3550 4626 c0 -35 5 -68 10 -71 6 -4 10 14 11 47 l0 53 24 -52 c13
-29 26 -53 29 -53 3 0 5 33 4 73 l-2 72 -4 -60 -3 -60 -24 55 c-32 76 -45 75
-45 -4z"/>
<path d="M3348 4635 c-15 -34 0 -80 27 -80 27 0 42 46 27 80 -6 14 -19 25 -27
25 -8 0 -21 -11 -27 -25z m48 -9 c8 -31 -3 -66 -21 -66 -8 0 -17 9 -20 21 -9
29 2 69 20 69 8 0 17 -11 21 -24z"/>
<path d="M3431 4576 c1 -50 4 -69 8 -51 4 21 12 30 26 30 17 0 20 7 20 50 0
48 -1 50 -27 51 l-28 1 1 -81z m44 28 c0 -28 -4 -39 -15 -39 -16 0 -26 45 -16
72 11 28 31 7 31 -33z"/>
<path d="M3659 4636 c-14 -29 -4 -75 16 -83 23 -8 45 16 45 51 0 55 -41 76
-61 32z m47 -10 c7 -31 -3 -66 -21 -66 -14 0 -22 32 -17 68 5 29 30 28 38 -2z"/>
<path d="M3733 4644 c3 -11 9 -36 13 -56 8 -50 19 -48 31 5 l9 42 8 -42 c10
-54 22 -55 30 -4 3 22 9 47 13 57 4 12 3 15 -5 10 -7 -4 -12 -18 -12 -31 0
-13 -4 -27 -10 -30 -6 -3 -10 4 -10 17 0 34 -15 55 -24 33 -3 -9 -6 -25 -6
-36 0 -10 -4 -19 -10 -19 -5 0 -10 13 -10 29 0 17 -5 33 -11 37 -7 4 -9 0 -6
-12z"/>
<path d="M3007 4233 c-3 -2 -3 -13 0 -23 4 -14 13 -18 33 -17 15 1 26 7 24 12
-5 12 -51 35 -57 28z"/>
<path d="M3105 4232 c-6 -4 -11 -15 -11 -24 -2 -26 57 -24 81 2 11 12 13 20 6
20 -6 0 -14 -7 -17 -15 -8 -19 -34 -20 -34 -1 0 18 -13 27 -25 18z"/>
<path d="M3326 4205 c-3 -9 0 -15 9 -15 8 0 15 7 15 15 0 8 -4 15 -9 15 -5 0
-11 -7 -15 -15z"/>
<path d="M2139 3478 c-1 -7 0 -23 1 -36 1 -12 -6 -25 -14 -28 -26 -10 -18 -22
10 -16 14 2 21 8 15 11 -7 5 -6 15 3 32 10 20 10 27 -1 37 -10 10 -13 10 -14
0z"/>
<path d="M6630 4810 l0 -1500 2940 0 2940 0 0 1500 0 1500 -2940 0 -2940 0 0
-1500z m3640 1464 c0 -22 -3 -24 -22 -18 -13 3 -39 15 -58 25 l-35 18 58 1
c55 0 57 -1 57 -26z m-445 -4 c3 -5 -1 -10 -9 -10 -8 0 -18 5 -21 10 -3 6 1
10 9 10 8 0 18 -4 21 -10z m-428 -55 c9 -25 -4 -29 -17 -6 -7 15 -7 21 0 21 6
0 13 -7 17 -15z m470 -7 c-3 -8 -6 -5 -6 6 -1 11 2 17 5 13 3 -3 4 -12 1 -19z
m275 -59 c29 -11 57 -24 61 -28 5 -5 3 -36 -4 -70 -13 -67 -18 -70 -80 -50
-49 17 -59 35 -59 106 0 73 2 74 82 42z m-462 -27 c0 -15 -2 -15 -10 -2 -13
20 -13 33 0 25 6 -3 10 -14 10 -23z m594 -38 c10 -27 7 -114 -5 -114 -6 0 -19
5 -30 11 -18 9 -19 17 -14 52 10 60 35 87 49 51z m-2854 -54 c6 -11 8 -20 6
-20 -3 0 -10 9 -16 20 -6 11 -8 20 -6 20 3 0 10 -9 16 -20z m45 -70 c9 -16 13
-30 11 -30 -3 0 -12 14 -21 30 -9 17 -13 30 -11 30 3 0 12 -13 21 -30z m821
-22 c17 -18 41 -48 54 -66 13 -19 28 -31 36 -28 14 5 94 -41 94 -55 0 -4 15
-17 33 -29 17 -12 23 -19 12 -15 -36 13 -59 11 -63 -7 -2 -12 6 -21 25 -29 15
-5 40 -16 56 -24 31 -15 34 -9 11 23 -26 38 1 24 57 -28 30 -28 64 -58 77 -66
12 -8 20 -19 17 -25 -12 -19 -85 -49 -119 -49 -44 0 -122 26 -160 53 -27 19
-28 23 -24 84 3 55 2 64 -12 60 -8 -2 -21 2 -28 10 -10 10 -10 13 3 13 8 0 15
5 15 10 0 6 -5 10 -11 10 -6 0 -8 8 -5 18 7 20 -32 81 -87 140 -17 17 -26 32
-21 32 6 0 24 -15 40 -32z m-756 -93 c0 -5 -5 -3 -10 5 -5 8 -10 20 -10 25 0
6 5 3 10 -5 5 -8 10 -19 10 -25z m2621 8 c6 -6 7 -22 3 -37 -5 -21 -12 -26
-36 -26 -22 0 -29 4 -25 14 3 7 1 18 -5 24 -18 18 -2 41 27 37 15 -1 31 -7 36
-12z m104 -27 c18 -13 17 -15 -15 -35 -19 -11 -43 -21 -52 -21 -22 0 -34 20
-18 30 6 4 11 10 11 14 -3 21 2 26 27 26 16 0 37 -6 47 -14z m-2655 -71 c24
-29 24 -29 2 -10 -13 11 -28 29 -34 40 -11 21 -8 18 32 -30z m128 5 c41 -25
41 -36 -4 -44 -19 -4 -42 -10 -50 -13 -10 -4 -14 2 -14 20 0 14 -5 29 -10 32
-6 4 -8 11 -5 16 10 15 48 10 83 -11z m225 -30 c35 0 137 -39 137 -52 0 -5 -8
-4 -19 1 -26 14 -33 3 -14 -25 18 -27 24 -113 10 -131 -7 -9 -5 -13 6 -13 8 0
27 -16 41 -35 l27 -35 -92 0 c-51 0 -89 3 -86 7 4 3 -3 11 -16 18 -12 6 -21
17 -19 23 1 7 -10 12 -27 12 -15 0 -39 9 -53 19 -14 11 -31 21 -39 23 -37 8
-57 66 -28 84 15 9 10 26 -6 20 -8 -3 -14 -1 -12 4 1 5 -6 15 -17 23 -17 13
-15 15 27 27 26 7 44 17 41 22 -4 7 9 8 37 3 40 -7 42 -6 30 9 -13 15 -11 16
13 6 15 -5 42 -10 59 -10z m2021 -30 c21 -8 21 -8 1 -15 -11 -3 -43 -17 -72
-30 l-51 -24 -26 34 c-41 54 -36 58 51 50 42 -4 86 -11 97 -15z m314 -23 c3
-35 1 -38 -20 -35 -24 3 -35 34 -24 64 12 30 41 11 44 -29z m-68 -2 c0 -36
-13 -47 -24 -19 -11 28 -6 54 9 54 10 0 15 -11 15 -35z m860 10 c0 -8 -7 -15
-15 -15 -8 0 -15 7 -15 15 0 8 7 15 15 15 8 0 15 -7 15 -15z m-952 -11 c12 -4
22 -13 22 -20 0 -19 -10 -17 -40 6 -26 20 -21 24 18 14z m-1290 -31 c-10 -2
-28 -2 -40 0 -13 2 -5 4 17 4 22 1 32 -1 23 -4z m-1891 -33 c-6 -16 -13 -28
-15 -26 -6 6 10 56 18 56 5 0 3 -13 -3 -30z m1823 26 c0 -2 -7 -7 -16 -10 -8
-3 -12 -2 -9 4 6 10 25 14 25 6z m169 -41 c28 -20 51 -40 51 -43 -1 -11 -42
-37 -80 -52 -19 -7 -58 -26 -86 -42 -28 -15 -60 -28 -70 -28 -17 1 -17 2 4 19
30 26 28 35 -10 46 -38 11 -44 38 -10 43 15 2 22 -2 22 -12 0 -24 20 -19 47
12 17 18 27 23 30 15 6 -16 35 -17 51 -1 19 19 14 55 -10 74 -45 33 11 5 61
-31z m-1854 15 c32 -11 72 -20 90 -20 34 0 121 -27 174 -55 27 -14 30 -19 20
-31 -7 -9 -26 -22 -42 -30 -26 -14 -32 -14 -62 0 -18 9 -38 16 -44 16 -6 0
-11 11 -11 24 0 14 -4 27 -9 30 -11 7 -35 -20 -28 -31 9 -15 -17 -126 -30
-131 -10 -3 -13 15 -13 68 0 93 -7 100 -90 89 -36 -5 -75 -11 -87 -14 -37 -9
-28 20 20 64 23 22 45 41 48 41 3 0 32 -9 64 -20z m2633 -73 c52 -50 63 -55
126 -65 46 -7 76 -18 92 -33 19 -18 24 -19 24 -7 0 44 -14 77 -37 87 -31 14
-19 35 15 26 54 -13 173 -75 198 -102 16 -17 24 -21 20 -11 -7 24 7 30 30 14
15 -12 17 -19 9 -43 l-10 -28 -300 0 -300 0 -3 23 c-2 12 2 22 8 22 14 0 9 38
-11 87 -7 18 -9 36 -5 40 5 4 11 2 13 -4 8 -22 21 -14 32 17 5 17 17 30 26 30
9 0 42 -24 73 -53z m-547 8 c47 -38 59 -42 59 -22 0 6 4 18 9 26 8 12 12 12
24 2 13 -10 17 -9 25 5 8 14 13 15 46 3 47 -17 41 -32 -18 -43 -52 -9 -60 -32
-18 -51 12 -5 22 -17 22 -25 0 -10 3 -11 8 -4 4 6 18 17 31 24 23 12 27 10 60
-29 20 -23 41 -41 48 -41 6 0 15 -4 18 -10 4 -6 -61 -10 -183 -10 l-190 1 -5
27 c-3 14 -3 41 0 59 7 41 -13 90 -39 96 -30 8 -12 27 26 27 23 0 47 -11 77
-35z m-2507 -54 c3 -5 -1 -14 -9 -21 -13 -10 -15 -9 -15 9 0 21 14 28 24 12z
m856 -51 c0 -13 -1 -13 -10 0 -5 8 -10 22 -10 30 0 13 1 13 10 0 5 -8 10 -22
10 -30z m2959 -50 c6 0 11 12 11 26 0 23 3 25 26 20 40 -10 104 -57 104 -76 0
-10 26 -39 57 -66 31 -27 86 -76 122 -110 36 -33 82 -70 101 -82 20 -11 67
-54 106 -94 70 -72 72 -75 92 -163 21 -88 30 -159 52 -380 12 -115 28 -242 60
-460 31 -208 68 -503 75 -597 l7 -88 -122 0 -123 0 6 63 c9 81 10 407 3 414
-3 4 -6 -11 -7 -33 -1 -51 -21 -127 -35 -131 -14 -5 -24 86 -24 214 0 104 -14
150 -52 175 -21 14 -26 28 -32 80 -21 174 -26 214 -50 346 -14 78 -26 164 -26
190 -1 26 -9 93 -19 149 -18 102 -32 135 -98 216 -13 16 -23 32 -23 37 0 4 20
20 45 34 25 15 45 29 45 31 0 3 -39 5 -86 5 l-86 0 23 -20 c40 -32 5 -22 -62
18 -35 21 -89 51 -119 66 -62 31 -84 66 -95 151 -4 28 -13 60 -21 72 -12 20
-12 23 8 37 20 14 26 13 74 -14 28 -17 57 -30 63 -30z m-2119 -119 c221 -131
357 -222 415 -275 43 -40 45 -45 45 -96 0 -62 -8 -58 -40 23 -15 37 -36 69
-61 91 -67 57 -233 165 -486 316 -57 33 -103 63 -103 65 0 10 63 -24 230 -124z
m2473 94 c61 -41 64 -41 92 -15 21 20 23 20 53 3 32 -18 41 -38 21 -45 -7 -2
0 -12 15 -22 15 -10 34 -15 42 -12 21 8 6 67 -22 89 -13 10 -22 23 -18 28 11
19 55 8 127 -31 47 -25 78 -37 82 -30 13 21 57 8 132 -39 43 -28 89 -59 102
-69 l25 -19 -23 -12 c-18 -10 -27 -10 -46 3 -30 20 -76 23 -57 4 7 -7 12 -16
12 -20 0 -12 -78 -10 -85 2 -4 6 -15 8 -24 5 -21 -6 -81 22 -81 39 0 6 5 17
12 24 9 9 2 12 -35 12 -40 0 -47 -3 -47 -19 0 -46 20 -69 100 -116 44 -26 91
-61 104 -79 41 -55 124 -283 146 -401 6 -33 22 -103 36 -155 35 -139 53 -233
47 -244 -3 -5 -1 -6 5 -2 8 5 11 -1 11 -16 -1 -13 1 -30 5 -39 8 -18 -19 -35
-29 -19 -12 19 -26 10 -20 -11 5 -16 4 -19 -5 -14 -8 5 -11 4 -6 -3 4 -6 13
-9 20 -6 25 9 25 -11 1 -22 -19 -9 -22 -9 -18 2 3 8 0 14 -6 14 -6 0 -11 8
-11 18 0 10 -4 22 -9 27 -5 6 -24 53 -41 105 -18 52 -40 118 -50 145 -12 36
-15 57 -8 77 5 14 8 43 6 65 l-4 38 -13 -32 c-7 -18 -17 -33 -21 -33 -5 0 -18
25 -30 57 -19 51 -20 68 -14 190 7 139 -1 183 -34 183 -8 0 -12 6 -9 14 9 23
-12 86 -28 86 -8 0 -14 5 -12 11 1 6 -31 28 -71 48 -54 27 -72 40 -68 53 4 18
-13 28 -49 28 -13 0 -27 5 -30 10 -9 14 -47 12 -86 -4 -28 -12 -36 -12 -59 3
-68 42 -76 54 -83 119 -4 34 -4 62 -1 62 2 0 28 -16 57 -35z m-1893 15 c12 -8
11 -10 -7 -10 -12 0 -25 5 -28 10 -8 13 15 13 35 0z m1295 0 c3 -5 1 -10 -4
-10 -6 0 -11 5 -11 10 0 6 2 10 4 10 3 0 8 -4 11 -10z m75 -570 l0 -550 -740
0 -740 0 0 550 0 550 740 0 740 0 0 -550z m-3480 436 c0 -11 -19 -15 -25 -6
-3 5 1 10 9 10 9 0 16 -2 16 -4z m3536 -148 c16 -12 31 -25 34 -28 3 -3 24
-20 48 -39 60 -47 85 -96 148 -288 65 -199 111 -380 154 -598 17 -88 42 -207
55 -265 25 -107 105 -528 105 -549 0 -8 -40 -11 -134 -11 l-133 0 -17 63 c-9
34 -23 93 -32 131 -8 39 -21 79 -27 90 -7 13 -12 75 -13 161 -1 90 -7 167 -18
215 -9 41 -18 83 -19 93 0 9 -7 17 -14 17 -7 0 -13 5 -13 11 0 5 -4 8 -8 5 -5
-3 -4 -39 1 -81 5 -42 7 -79 3 -82 -12 -12 -35 32 -59 112 -14 44 -43 140 -66
214 l-41 133 0 359 c0 198 4 359 9 359 4 0 21 -10 37 -22z m864 -80 c0 -11
-34 -10 -67 3 -26 10 -26 12 -8 19 11 4 23 6 27 3 4 -2 5 4 1 14 -5 14 -1 13
20 -6 15 -14 27 -28 27 -33z m-10 -88 c0 -45 -9 -50 -28 -19 -11 18 -11 24 4
40 9 10 19 19 21 19 1 0 3 -18 3 -40z m-4010 -219 c0 -35 -16 -59 -30 -45 -13
13 -16 76 -5 94 11 18 35 -15 35 -49z m4348 -620 c-8 -14 -16 -17 -24 -10 -8
7 -14 6 -17 -1 -3 -6 -4 -5 -3 2 2 7 10 13 19 13 8 0 19 4 23 8 13 13 14 7 2
-12z m-1526 -327 c19 -65 98 -410 98 -426 0 -17 -27 -18 -421 -18 -375 0 -420
2 -409 15 7 8 38 22 69 31 78 22 86 31 70 84 -12 38 -11 44 5 56 33 23 186 74
256 84 114 16 181 54 184 102 1 15 21 36 61 65 33 23 64 41 69 39 6 -1 14 -16
18 -32z"/>
<path d="M11382 4665 c0 -16 2 -22 5 -12 2 9 2 23 0 30 -3 6 -5 -1 -5 -18z"/>
<path d="M11431 4438 c-1 -9 4 -20 9 -23 6 -3 10 -14 10 -23 0 -16 52 -82 64
-82 12 0 -17 59 -43 88 -16 17 -31 37 -34 44 -4 9 -6 7 -6 -4z"/>
<path d="M11521 4194 c13 -16 29 -19 29 -5 0 5 -9 11 -21 14 -16 4 -18 3 -8
-9z"/>
<path d="M9235 5155 c-4 -46 -5 -91 -1 -100 7 -21 -3 -45 -20 -45 -8 0 -14 -4
-14 -10 0 -19 48 -11 55 9 8 27 4 231 -6 231 -4 0 -10 -38 -14 -85z"/>
<path d="M9317 5233 c-4 -3 -7 -16 -7 -27 0 -12 -9 -50 -20 -84 -11 -35 -20
-71 -20 -79 0 -28 25 -6 33 30 6 26 14 37 27 37 13 0 21 -11 27 -37 4 -20 15
-39 22 -41 10 -3 12 1 9 14 -7 24 -28 107 -40 157 -8 36 -17 44 -31 30z m26
-83 c4 -14 0 -20 -13 -20 -13 0 -16 6 -12 25 5 28 17 26 25 -5z"/>
<path d="M9414 5219 c-32 -36 -21 -159 16 -179 22 -12 60 -5 60 10 0 5 -7 7
-15 4 -8 -3 -25 5 -39 19 -21 21 -24 31 -19 68 8 60 19 79 48 79 14 0 25 5 25
10 0 19 -57 10 -76 -11z"/>
<path d="M9520 5140 c0 -99 16 -141 22 -57 l3 42 23 -42 c12 -24 27 -43 33
-43 6 0 9 6 6 13 -3 6 -13 32 -22 56 -18 42 -17 44 3 87 26 54 12 58 -20 7
l-23 -38 -3 38 c-2 20 -7 37 -13 37 -5 0 -9 -44 -9 -100z"/>
<path d="M9630 5140 l0 -100 40 0 c22 0 40 5 40 10 0 6 -13 10 -30 10 -28 0
-30 3 -30 35 0 31 3 35 25 35 14 0 25 4 25 9 0 5 -11 12 -25 15 -20 5 -25 13
-25 36 0 25 4 30 25 30 14 0 25 5 25 10 0 6 -16 10 -35 10 l-35 0 0 -100z"/>
<path d="M9720 5230 c0 -5 7 -10 15 -10 15 0 19 -28 15 -132 -1 -29 3 -48 9
-48 7 0 11 33 11 90 0 83 1 90 20 90 11 0 20 5 20 10 0 6 -20 10 -45 10 -25 0
-45 -4 -45 -10z"/>
<path d="M9832 5228 c-22 -22 -14 -66 16 -85 15 -9 33 -23 40 -32 7 -9 12 -10
12 -3 0 7 -14 24 -30 39 -41 36 -37 67 8 71 18 2 30 8 27 13 -9 13 -59 11 -73
-3z"/>
<path d="M9882 5064 c-8 -9 -22 -12 -37 -8 -28 7 -35 -10 -9 -20 23 -9 51 1
58 21 9 21 4 24 -12 7z"/>
<path d="M9333 4625 c0 -66 1 -71 6 -31 8 69 31 74 31 7 0 -28 5 -51 10 -51
11 0 13 52 3 88 -4 17 -11 22 -24 19 -13 -4 -19 2 -22 22 -2 14 -4 -10 -4 -54z"/>
<path d="M9252 4678 c-18 -18 -15 -31 18 -60 36 -31 32 -63 -6 -55 -13 2 -24
0 -24 -4 0 -19 50 -8 61 13 10 19 8 25 -15 44 -32 28 -33 52 -3 64 21 8 21 9
2 9 -12 1 -26 -4 -33 -11z"/>
<path d="M9622 4618 l1 -73 6 60 c5 48 8 55 14 37 5 -13 11 -21 14 -19 5 6
-25 67 -32 67 -3 0 -4 -33 -3 -72z"/>
<path d="M9690 4633 c-1 -53 -2 -56 -15 -39 -18 24 -19 16 -3 -19 19 -42 28
-28 28 45 0 39 -2 70 -5 70 -3 0 -5 -26 -5 -57z"/>
<path d="M9414 4646 c-3 -8 -4 -31 -2 -52 3 -34 6 -39 28 -39 20 0 26 6 28 29
6 46 -6 76 -29 76 -11 0 -22 -6 -25 -14z m41 -42 c0 -28 -4 -39 -15 -39 -16 0
-26 45 -16 72 11 28 31 7 31 -33z"/>
<path d="M9513 4653 c-9 -3 -13 -28 -12 -81 1 -42 4 -65 6 -50 3 18 11 28 26
30 19 3 22 9 22 53 0 50 -10 62 -42 48z m32 -49 c0 -28 -4 -39 -15 -39 -16 0
-26 45 -16 72 11 28 31 7 31 -33z"/>
<path d="M9728 4635 c-15 -34 0 -80 27 -80 27 0 42 46 27 80 -6 14 -19 25 -27
25 -8 0 -21 -11 -27 -25z m48 -9 c8 -31 -3 -66 -21 -66 -8 0 -17 9 -20 21 -9
29 2 69 20 69 8 0 17 -11 21 -24z"/>
<path d="M9806 4625 c7 -57 14 -76 25 -70 5 4 9 17 9 31 0 13 5 24 10 24 6 0
10 -11 10 -24 0 -14 4 -27 9 -31 11 -6 18 13 25 70 l6 40 -14 -45 -13 -45 -7
43 c-4 23 -11 42 -16 42 -5 0 -12 -19 -16 -42 l-7 -43 -13 45 -14 45 6 -40z"/>
<path d="M10573 3810 c0 -25 2 -35 4 -22 2 12 2 32 0 45 -2 12 -4 2 -4 -23z"/>
<path d="M10570 3720 c0 -5 5 -10 11 -10 5 0 7 5 4 10 -3 6 -8 10 -11 10 -2 0
-4 -4 -4 -10z"/>
<path d="M12700 4810 l0 -1500 2940 0 2940 0 0 1500 0 1500 -2940 0 -2940 0 0
-1500z m285 1468 c-1 -28 -14 -67 -29 -87 -34 -46 -139 -138 -171 -149 -32
-12 -39 -12 -56 4 -17 15 -19 31 -19 136 l0 118 138 0 c137 0 138 0 137 -22z
m503 5 c-22 -35 -184 -175 -233 -204 -57 -33 -116 -52 -137 -44 -24 9 -56 77
-73 151 -8 38 -18 79 -20 92 l-5 22 240 0 c227 0 240 -1 228 -17z m1592 10 c0
-5 -9 -32 -20 -61 -22 -56 -25 -98 -10 -122 17 -26 62 20 105 108 l40 81 355
0 356 1 40 -42 c71 -75 122 -142 192 -254 137 -218 159 -250 196 -281 39 -35
51 -39 61 -23 8 13 51 13 78 -1 11 -7 44 -18 71 -25 62 -16 81 -5 71 40 -3 17
-9 56 -13 86 -5 30 -12 64 -17 75 -6 11 -10 73 -10 139 l0 118 49 43 c44 39
46 44 30 53 -18 10 -86 20 -170 27 -99 8 -197 24 -207 34 -19 19 243 15 283
-5 35 -18 124 -14 144 6 6 6 73 10 167 10 149 0 157 -1 152 -19 -4 -15 3 -20
33 -26 21 -4 49 -17 62 -30 13 -13 43 -33 67 -44 85 -40 58 -43 -127 -15 -90
13 -178 11 -178 -5 0 -4 23 -29 51 -56 75 -73 185 -223 268 -365 124 -213 145
-244 190 -288 42 -41 47 -43 85 -38 31 5 64 -2 129 -24 49 -16 111 -32 138
-36 27 -4 49 -9 49 -13 0 -3 -18 -14 -40 -23 -22 -9 -40 -23 -40 -31 0 -26
-45 -46 -96 -43 -53 3 -78 -14 -96 -65 -5 -15 -25 -38 -44 -50 -19 -11 -36
-30 -38 -42 -15 -71 -14 -77 15 -98 16 -11 38 -21 49 -22 11 -1 20 -7 20 -13
0 -7 8 -10 20 -7 31 8 34 -20 7 -79 -82 -176 -101 -219 -118 -276 -11 -34 -37
-98 -59 -141 -21 -42 -42 -91 -46 -107 -11 -45 -32 -73 -120 -159 -90 -89
-143 -115 -229 -115 -82 0 -131 42 -149 126 -4 17 -23 46 -42 65 -31 30 -34
38 -29 69 4 19 10 92 14 161 6 117 9 130 34 162 l27 35 -25 45 c-25 43 -26 99
-4 113 10 6 12 114 3 138 -3 9 -11 16 -18 16 -27 0 -55 69 -62 152 -4 46 -13
100 -20 122 -8 21 -14 61 -14 88 0 42 -5 56 -35 91 -19 22 -35 44 -35 47 0 4
-17 10 -37 13 -21 3 -46 8 -55 12 -13 5 -15 2 -11 -17 10 -36 50 -96 78 -114
13 -9 34 -31 46 -50 24 -39 24 -40 -50 -108 -24 -23 -57 -59 -73 -80 l-28 -39
0 126 0 127 -855 0 -855 0 0 -286 0 -286 -32 6 c-17 3 -32 7 -33 9 0 1 -8 25
-17 52 -10 28 -35 101 -58 164 -22 63 -38 116 -36 118 2 2 25 -28 51 -67 26
-38 51 -68 56 -64 13 8 11 44 -2 41 -14 -2 -81 81 -108 133 -22 42 -40 165
-42 280 0 47 -7 104 -15 127 -19 59 -29 436 -14 561 18 148 1 141 303 141 136
1 247 -2 247 -6z m2500 -1 c0 -8 -165 -172 -186 -185 -7 -4 -33 2 -58 14 l-46
20 17 30 c10 16 37 52 61 79 l44 50 84 0 c46 0 84 -4 84 -8z m925 -16 c-55
-83 -295 -215 -417 -230 -20 -2 -46 -7 -58 -11 -20 -6 -25 2 -12 21 10 15 40
25 47 14 3 -5 16 1 29 13 13 13 57 39 98 60 40 20 105 64 143 96 67 57 72 60
128 60 l57 1 -15 -24z m-508 -231 c3 -9 3 -18 0 -21 -10 -10 -77 -16 -104 -9
-26 6 -27 7 -8 18 11 6 29 13 39 14 11 2 22 6 25 8 10 11 42 4 48 -10z m-5037
-55 c28 -18 -33 -65 -100 -76 -31 -5 -65 18 -57 38 11 31 125 58 157 38z m310
-70 c0 -23 -45 -39 -62 -22 -18 18 -1 42 32 42 23 0 30 -4 30 -20z m362 -12
c6 -31 2 -157 -6 -165 -3 -3 -7 0 -9 8 -2 8 -11 37 -20 65 -28 85 -23 104 24
113 4 0 9 -9 11 -21z m748 -7 c-5 -11 -19 -23 -31 -26 -13 -4 -18 -12 -15 -22
9 -22 -4 -63 -19 -63 -23 0 -27 18 -11 49 12 22 13 30 3 34 -19 6 10 35 41 40
15 2 31 5 35 6 4 0 3 -8 -3 -18z m-445 -110 c3 -5 1 -12 -5 -16 -5 -3 -10 1
-10 9 0 18 6 21 15 7z m-1036 -17 c17 -4 31 -12 31 -19 0 -17 -113 -45 -134
-33 -16 9 -22 39 -9 51 8 9 71 9 112 1z m409 -45 c73 -23 80 -28 45 -28 -22
-1 -33 -6 -33 -15 0 -15 -92 -37 -118 -28 -18 6 -44 61 -38 79 5 13 17 15 57
10 28 -4 67 -11 87 -18z m619 -21 c-3 -7 -5 -2 -5 12 0 14 2 19 5 13 2 -7 2
-19 0 -25z m-280 -50 c-3 -8 -6 -5 -6 6 -1 11 2 17 5 13 3 -3 4 -12 1 -19z
m313 1 c0 -5 -4 -9 -10 -9 -5 0 -10 7 -10 16 0 8 5 12 10 9 6 -3 10 -10 10
-16z m-746 -266 c8 -63 8 -83 -3 -83 -12 0 -18 20 -26 88 -6 43 -4 51 8 46 8
-3 17 -25 21 -51z m512 -78 c3 -22 5 -47 6 -55 0 -8 4 -17 7 -20 3 -3 12 -16
19 -29 13 -22 12 -23 -5 -17 -14 6 -16 5 -5 -5 6 -7 12 -23 12 -35 0 -14 8
-25 20 -29 29 -9 53 -50 45 -75 -7 -21 -8 -21 -26 -4 -19 17 -20 17 -13 0 5
-13 3 -17 -5 -15 -21 7 -57 109 -64 179 -4 36 -10 76 -13 90 -3 14 -7 48 -9
75 l-4 50 16 -35 c8 -19 17 -53 19 -75z m2754 -505 l0 -550 -845 0 -845 0 0
550 0 550 845 0 845 0 0 -550z m-3489 370 c18 0 39 -20 39 -37 0 -27 -39 -12
-69 26 -37 46 -41 64 -8 33 13 -12 30 -22 38 -22z m5577 -277 l-3 -88 -27 45
c-45 75 -46 117 -7 215 l34 84 3 -84 c1 -47 1 -124 0 -172z m-5193 133 c0 -6
-13 -10 -28 -9 -25 2 -27 -1 -21 -20 3 -12 18 -37 31 -55 22 -30 29 -33 62
-28 20 3 58 8 86 12 27 4 83 17 124 30 87 27 101 22 101 -35 0 -20 4 -41 9
-46 5 -6 14 -27 21 -48 12 -40 47 -80 61 -71 5 2 16 -7 25 -21 15 -24 15 -28
-1 -70 -16 -45 -30 -56 -37 -33 -6 17 -39 1 -45 -21 -3 -11 -14 -22 -25 -24
-19 -5 -19 -5 -2 14 17 18 16 19 -17 19 -19 -1 -45 -7 -58 -14 l-25 -14 35 -7
34 -8 -45 -13 c-25 -8 -66 -14 -92 -14 -80 0 -103 -23 -53 -56 21 -13 34 -14
97 -4 71 11 206 42 240 55 22 9 43 -32 67 -130 21 -83 59 -140 118 -176 36
-23 80 -26 223 -16 33 2 36 -1 62 -53 35 -70 48 -84 106 -105 26 -10 65 -35
87 -57 49 -47 77 -53 214 -45 182 11 381 56 573 130 l68 26 6 -27 c20 -91 36
-149 50 -178 35 -74 208 -121 408 -112 125 5 130 9 105 78 -10 30 -22 62 -26
70 -11 24 -12 143 -2 162 14 26 26 22 63 -16 42 -45 71 -51 175 -36 108 15
178 34 212 57 99 68 126 83 150 83 37 0 42 -11 23 -49 -35 -69 -179 -162 -281
-181 -34 -6 -105 -11 -157 -11 l-95 0 -5 -32 c-9 -56 -10 -70 -2 -149 5 -43
14 -85 20 -94 17 -23 128 -33 376 -33 301 0 457 18 525 61 40 25 73 25 89 -1
4 -6 14 -7 24 -4 16 7 16 5 0 -19 -9 -14 -20 -41 -23 -62 -7 -33 -10 -36 -41
-36 -19 0 -51 -7 -72 -16 -20 -9 -50 -20 -67 -24 -16 -5 -79 -27 -140 -50
-144 -54 -256 -72 -425 -70 -74 0 -146 2 -160 3 -39 3 -39 -36 0 -84 l31 -39
-1415 0 c-987 0 -1417 3 -1421 11 -4 5 -16 88 -26 182 -12 102 -30 206 -45
254 -13 46 -29 120 -35 165 -11 90 -37 214 -49 238 -5 8 -11 42 -14 75 -19
178 -47 299 -88 378 -24 47 -17 70 27 96 42 25 43 37 7 81 l-29 34 -32 -24
c-18 -14 -45 -37 -59 -51 -28 -27 -212 -119 -238 -119 -3 0 -3 95 -2 212 l3
211 100 34 c128 43 142 43 161 -3 10 -24 26 -40 50 -50 32 -13 44 -13 145 12
117 28 115 26 93 79 -4 12 17 -3 52 -34 32 -30 59 -59 59 -65z m448 -33 c-3
-7 -9 -10 -14 -7 -14 8 -11 21 5 21 8 0 12 -6 9 -14z m-1 -87 c22 -44 24 -55
13 -60 -16 -6 -29 9 -20 24 3 6 2 10 -4 10 -5 0 -13 10 -16 23 -4 12 -9 30
-11 40 -11 37 13 14 38 -37z m285 -53 c3 -51 -14 -39 -26 17 -14 67 -14 69 6
40 10 -14 19 -40 20 -57z m34 -58 c19 -8 26 -14 17 -15 -10 0 -18 -7 -18 -15
0 -25 -15 -17 -27 15 -6 17 -10 30 -8 30 1 0 18 -7 36 -15z m43 -62 c4 -9 2
-21 -4 -27 -7 -7 -10 -7 -10 1 0 6 -3 18 -6 27 -3 9 -2 16 4 16 5 0 13 -8 16
-17z m-34 -7 c0 -3 -4 -8 -10 -11 -5 -3 -10 -1 -10 4 0 6 5 11 10 11 6 0 10
-2 10 -4z m30 -111 c-1 -18 -2 -17 -14 5 -7 14 -17 36 -21 50 -6 23 -5 23 14
-5 12 -16 21 -39 21 -50z m-1348 -37 c9 -8 20 -41 26 -78 29 -192 83 -523 86
-529 2 -3 7 -26 10 -51 3 -25 13 -83 21 -130 8 -47 15 -102 15 -122 0 -20 4
-39 9 -42 8 -5 21 -66 26 -121 1 -11 7 -38 13 -60 5 -22 13 -61 17 -87 l6 -48
-176 0 -176 0 1 627 c1 575 3 628 18 640 22 16 84 17 104 1z m1403 -53 c19
-31 35 -61 35 -69 0 -43 73 -42 184 3 43 17 83 31 89 31 18 -1 -36 -29 -55
-30 -10 0 -18 -4 -18 -10 0 -5 -10 -10 -22 -10 -13 0 -32 -7 -42 -15 -11 -8
-27 -15 -37 -15 -17 0 -31 -22 -33 -50 -1 -10 -9 -14 -23 -12 -21 3 -22 2 -9
-22 7 -15 11 -38 8 -53 -5 -27 -6 -26 -19 12 -7 21 -19 46 -27 54 -19 22 -46
104 -44 138 1 15 -6 45 -16 66 -23 53 -12 46 29 -18z m360 -24 c-3 -6 -11 -11
-17 -11 -6 0 -6 6 2 15 14 17 26 13 15 -4z m255 -276 c7 -8 8 -15 2 -15 -5 0
-15 7 -22 15 -7 8 -8 15 -2 15 5 0 15 -7 22 -15z m103 8 c-7 -2 -19 -2 -25 0
-7 3 -2 5 12 5 14 0 19 -2 13 -5z m695 -3 c-23 -14 -182 -14 -205 -1 -13 8 13
10 102 10 84 0 115 -3 103 -9z m1966 -336 c9 -8 16 -18 16 -20 0 -21 -41 -72
-107 -133 -95 -87 -150 -110 -279 -118 -85 -5 -95 -4 -148 22 -31 15 -56 29
-56 32 0 2 7 11 15 19 23 24 88 42 185 53 101 11 151 34 225 102 63 58 118 74
149 43z m-537 -386 c2 -19 1 -18 -18 3 -24 28 -25 43 -1 28 10 -6 19 -20 19
-31z m1493 -88 c0 -85 -3 -110 -13 -110 -34 0 -51 126 -22 164 8 11 15 28 15
38 0 10 5 18 10 18 6 0 10 -43 10 -110z m-1415 -85 l50 -23 -130 0 c-124 0
-128 1 -79 13 28 6 59 17 70 23 26 15 31 14 89 -13z"/>
<path d="M14920 6100 c0 -6 -69 -26 -120 -35 -19 -3 -42 -10 -50 -15 -29 -18
7 -31 101 -36 117 -7 193 15 196 56 1 14 0 19 -3 12 -5 -10 -10 -8 -21 8 -12
17 -23 20 -59 18 -24 -2 -44 -5 -44 -8z"/>
<path d="M14670 5989 c-39 -16 -61 -40 -86 -98 -26 -58 -29 -71 -15 -71 5 0
12 15 15 34 7 38 79 111 111 111 11 0 21 8 23 18 4 19 -10 21 -48 6z"/>
<path d="M14809 5976 c6 -7 9 -21 5 -30 -4 -12 0 -16 15 -16 12 0 21 5 21 11
0 11 58 -35 144 -115 28 -25 35 -36 23 -36 -9 0 -17 -5 -17 -11 0 -5 -4 -7
-10 -4 -5 3 -10 17 -10 31 0 13 -4 24 -10 24 -9 0 -12 -11 -14 -57 -1 -10 -8
-23 -16 -29 -11 -10 -12 -15 -2 -27 32 -38 99 -26 88 17 -3 11 3 33 12 49 l17
29 -58 53 c-74 68 -125 103 -166 115 -27 7 -31 7 -22 -4z m191 -247 c0 -5 -4
-9 -10 -9 -5 0 -10 7 -10 16 0 8 5 12 10 9 6 -3 10 -10 10 -16z"/>
<path d="M14755 5970 c-3 -5 -1 -10 4 -10 6 0 11 5 11 10 0 6 -2 10 -4 10 -3
0 -8 -4 -11 -10z"/>
<path d="M15622 5893 c-16 -33 -18 -50 -13 -108 1 -5 15 -26 32 -45 17 -19 26
-36 21 -38 -9 -3 -91 52 -162 108 -14 11 -41 21 -60 22 -35 3 -35 3 -38 -41
-3 -38 -1 -43 11 -33 15 12 47 7 47 -8 0 -4 -7 -10 -15 -14 -8 -3 -15 -13 -15
-21 0 -13 6 -15 30 -10 20 4 30 3 30 -5 0 -7 -6 -10 -13 -7 -8 3 -13 -2 -12
-11 3 -37 17 -62 35 -62 27 0 74 -27 58 -33 -9 -4 -8 -6 3 -6 9 -1 20 -8 23
-17 3 -8 10 -13 15 -9 5 3 12 1 16 -5 8 -13 52 -13 60 0 10 16 43 11 54 -7 7
-13 13 -15 21 -7 19 19 0 85 -32 113 -31 28 -34 47 -13 75 19 26 19 50 -1 67
-12 10 -14 23 -9 56 3 24 2 43 -3 43 -4 0 -18 9 -30 20 l-21 20 -19 -37z"/>
<path d="M14790 5910 c0 -5 5 -10 10 -10 6 0 10 5 10 10 0 6 -4 10 -10 10 -5
0 -10 -4 -10 -10z"/>
<path d="M14870 5894 c0 -8 5 -12 10 -9 6 3 10 10 10 16 0 5 -4 9 -10 9 -5 0
-10 -7 -10 -16z"/>
<path d="M14830 5879 c0 -11 5 -17 10 -14 6 3 10 13 10 21 0 8 -4 14 -10 14
-5 0 -10 -9 -10 -21z"/>
<path d="M14913 5848 c0 -13 -4 -43 -8 -67 -6 -35 -5 -43 5 -39 17 5 29 46 25
89 -3 37 -23 53 -22 17z"/>
<path d="M14868 5835 c-3 -14 -2 -25 2 -25 14 0 32 29 25 40 -11 17 -22 11
-27 -15z"/>
<path d="M16144 5726 c-17 -13 -16 -14 4 -25 25 -13 42 -7 42 14 0 19 -26 25
-46 11z"/>
<path d="M15850 5444 c0 -21 4 -33 10 -29 6 3 10 19 10 36 0 16 -4 29 -10 29
-5 0 -10 -16 -10 -36z"/>
<path d="M17080 4506 c0 -18 21 -36 43 -36 29 0 17 32 -15 41 -19 5 -28 3 -28
-5z"/>
<path d="M17029 4338 c-6 -65 13 -98 56 -98 44 0 76 29 68 62 -10 39 -23 48
-74 48 -32 0 -49 -4 -50 -12z"/>
<path d="M15212 5228 c-7 -7 -12 -16 -12 -21 0 -5 7 -1 16 8 10 10 24 13 36 9
14 -4 18 -2 14 5 -9 15 -39 14 -54 -1z"/>
<path d="M15312 5138 c2 -96 2 -98 5 -25 2 42 8 77 13 77 4 0 21 -32 36 -71
15 -38 31 -72 36 -75 4 -3 7 41 6 98 l-2 103 -5 -80 -6 -80 -27 57 c-14 31
-29 65 -33 77 -15 49 -25 15 -23 -81z"/>
<path d="M15460 5140 l0 -100 38 1 c36 1 36 2 7 8 -27 6 -30 10 -30 46 0 33 4
40 25 46 l25 7 -27 1 c-25 1 -28 5 -28 36 0 32 2 35 30 35 17 0 30 5 30 10 0
6 -16 10 -35 10 l-35 0 0 -100z"/>
<path d="M15585 5219 c-32 -131 -41 -179 -34 -179 4 0 11 16 15 35 5 29 11 35
30 35 19 0 26 -7 31 -30 3 -17 10 -33 14 -36 12 -7 12 -5 -12 94 -24 96 -35
117 -44 81z m25 -65 c0 -15 -6 -24 -15 -24 -17 0 -18 4 -9 37 8 29 24 20 24
-13z"/>
<path d="M15670 5140 c0 -60 4 -100 10 -100 6 0 10 18 10 40 0 22 4 40 8 40 5
0 17 -18 27 -40 10 -22 22 -40 27 -40 12 0 10 6 -17 61 l-26 49 27 45 c14 25
22 45 17 45 -5 0 -20 -19 -34 -42 l-24 -43 -3 43 c-6 83 -22 41 -22 -58z"/>
<path d="M15780 5140 l0 -100 40 0 c22 0 40 5 40 10 0 6 -13 10 -30 10 -28 0
-30 3 -30 35 0 31 3 35 25 35 31 0 33 17 3 22 -18 2 -24 11 -26 36 -3 30 -1
32 27 32 17 0 31 5 31 10 0 6 -18 10 -40 10 l-40 0 0 -100z"/>
<path d="M15892 5139 c1 -57 3 -85 5 -61 5 50 25 56 47 15 8 -16 15 -24 16
-20 0 5 -5 17 -10 28 -8 14 -7 25 5 41 8 13 14 32 14 43 -1 20 -1 20 -6 0 -7
-29 -23 -45 -44 -45 -16 0 -19 8 -19 41 0 40 1 41 30 37 36 -5 27 8 -12 17
l-28 7 2 -103z"/>
<path d="M16010 5221 c-18 -35 -11 -59 25 -87 19 -14 35 -34 35 -44 0 -24 -26
-43 -50 -37 -11 3 -20 1 -20 -4 0 -18 59 -9 70 10 18 35 11 59 -25 87 -19 14
-35 35 -35 45 0 22 26 38 53 31 14 -3 18 -1 13 6 -11 19 -54 14 -66 -7z"/>
<path d="M15200 5172 c0 -5 16 -22 35 -39 19 -17 35 -27 35 -23 0 5 -7 15 -16
22 -8 7 -24 21 -35 31 -10 9 -19 13 -19 9z"/>
<path d="M15251 5063 c-8 -8 -24 -13 -37 -10 -13 2 -24 0 -24 -4 0 -15 57 -10
70 6 17 20 9 27 -9 8z"/>
<path d="M15322 4678 c-19 -19 -15 -32 18 -61 17 -15 30 -23 30 -18 0 5 -12
16 -26 25 -31 21 -28 48 6 57 21 6 22 7 5 8 -12 1 -26 -4 -33 -11z"/>
<path d="M15692 4618 l1 -73 6 55 6 55 22 -52 c12 -29 26 -53 31 -53 4 0 7 28
4 63 -5 82 -10 95 -11 27 l-1 -55 -25 53 c-13 28 -27 52 -30 52 -3 0 -4 -33
-3 -72z"/>
<path d="M15405 4650 c-4 -6 -4 -14 -1 -17 3 -4 6 -1 6 5 0 7 7 12 14 12 11 0
16 -15 19 -52 l4 -53 -1 55 c-1 43 -5 56 -18 58 -9 2 -19 -2 -23 -8z"/>
<path d="M15485 4649 c-4 -6 -4 -13 -1 -16 3 -4 6 -1 6 6 0 8 8 11 20 8 11 -3
18 -1 14 4 -7 12 -31 11 -39 -2z"/>
<path d="M15573 4653 c-9 -3 -13 -28 -11 -81 0 -42 3 -63 5 -45 3 23 8 30 19
26 35 -13 57 44 34 88 -11 19 -23 22 -47 12z m41 -26 c12 -48 -22 -93 -38 -51
-8 21 -8 59 1 67 13 14 31 6 37 -16z"/>
<path d="M15802 4648 c-14 -14 -16 -67 -3 -86 11 -17 43 -12 49 8 4 13 3 13
-11 2 -23 -19 -37 -6 -37 33 0 39 14 52 36 34 12 -10 13 -9 8 5 -7 19 -25 21
-42 4z"/>
<path d="M15910 4648 c0 -7 5 -20 10 -28 8 -12 10 -11 10 7 0 12 -4 25 -10 28
-5 3 -10 0 -10 -7z"/>
<path d="M15871 4634 c0 -11 3 -14 6 -6 3 7 2 16 -1 19 -3 4 -6 -2 -5 -13z"/>
<path d="M15531 4613 c-3 -47 -31 -73 -44 -40 -4 9 -6 9 -6 -1 -1 -20 29 -26
46 -10 9 9 13 27 10 44 -3 20 -4 22 -6 7z"/>
<path d="M15902 4600 c0 -14 2 -19 5 -12 2 6 2 18 0 25 -3 6 -5 1 -5 -13z"/>
<path d="M15880 4594 c0 -10 5 -26 10 -34 8 -11 9 -7 4 15 -8 37 -14 45 -14
19z"/>
<path d="M15930 4585 c0 -5 5 -17 10 -25 5 -8 10 -10 10 -5 0 6 -5 17 -10 25
-5 8 -10 11 -10 5z"/>
<path d="M15355 4571 c-6 -5 -19 -11 -30 -14 -19 -4 -19 -5 1 -6 12 0 27 6 34
14 14 16 10 20 -5 6z"/>
<path d="M13340 4684 c-25 -8 -69 -16 -99 -19 -66 -5 -81 -17 -50 -39 28 -19
102 -20 179 -2 57 13 73 33 50 61 -15 18 -22 18 -80 -1z"/>
<path d="M15195 3967 c-18 -29 -3 -112 26 -143 23 -24 61 -35 80 -23 11 6 10
18 -1 61 -25 99 -76 149 -105 105z"/>
<path d="M560 1620 l0 -1500 4460 0 4460 0 0 1500 0 1500 -4460 0 -4460 0 0
-1500z m3941 1473 c2 -26 3 -31 24 -101 14 -49 25 -67 46 -77 24 -13 30 -12
52 6 14 11 28 27 31 37 6 16 25 25 130 59 63 20 90 44 81 72 -6 21 -4 21 157
21 109 0 158 -4 148 -10 -12 -8 -12 -10 5 -11 11 0 14 -3 8 -6 -7 -2 -13 -11
-13 -19 0 -8 -5 -14 -12 -14 -6 0 -3 -9 7 -20 10 -11 15 -20 10 -20 -4 0 -2
-7 5 -15 7 -8 8 -15 2 -15 -5 0 -9 -15 -7 -32 1 -18 -3 -42 -9 -53 -6 -11 -9
-23 -8 -27 1 -5 -2 -8 -7 -8 -4 0 -7 -11 -6 -25 2 -14 -1 -23 -5 -20 -5 3 -7
13 -4 23 5 14 3 14 -10 -2 -24 -30 -19 -10 9 38 24 41 24 44 8 57 -16 12 -17
12 -6 -1 8 -10 9 -21 3 -30 -9 -14 -11 -13 -14 10 0 6 -5 10 -11 9 -5 0 -13 8
-17 18 -5 11 -6 7 -2 -12 l6 -30 -21 27 c-12 14 -21 31 -21 37 0 6 -5 11 -11
11 -5 0 -8 4 -5 8 3 5 -2 9 -11 9 -9 0 -18 -9 -21 -19 -5 -19 -18 -21 -146
-19 -61 0 -76 -3 -131 -35 -67 -37 -81 -53 -108 -124 -24 -61 -38 -78 -73 -85
-16 -3 -35 -7 -42 -9 -8 -1 -17 -8 -22 -16 -7 -11 -13 -10 -35 4 -18 12 -25
14 -20 5 3 -8 -1 -5 -9 5 -9 11 -16 17 -16 13 0 -11 -74 75 -103 120 -15 24
-27 49 -27 57 0 25 52 115 69 121 9 3 39 27 66 55 50 51 84 64 86 33z m526
-135 c-3 -8 -6 -5 -6 6 -1 11 2 17 5 13 3 -3 4 -12 1 -19z m65 -75 c11 -10 18
-12 16 -6 -2 6 0 11 5 12 7 1 7 -6 0 -26 -3 -7 -10 -10 -16 -6 -6 4 -8 0 -4
-10 3 -9 2 -19 -3 -22 -6 -4 -10 1 -10 9 0 9 -4 16 -10 16 -5 0 -10 -4 -10 -8
0 -4 -8 -8 -18 -9 -9 -1 -24 -3 -31 -5 -32 -7 -20 29 16 50 46 26 42 26 65 5z
m3835 -15 c9 23 23 12 13 -12 -7 -19 -5 -26 13 -35 21 -11 21 -11 1 -6 -12 3
-26 -1 -33 -9 -18 -22 -50 -9 -46 20 3 34 25 59 37 42 8 -10 11 -10 15 0z
m-271 -50 c3 -11 3 -22 0 -25 -3 -4 -6 1 -6 11 0 9 -4 14 -10 11 -6 -4 -5 -13
2 -25 9 -14 15 -16 25 -8 11 9 12 6 4 -13 -7 -20 -15 -23 -41 -21 -31 2 -60
-11 -60 -29 0 -9 57 -6 66 4 4 3 16 2 29 -3 13 -5 40 -4 65 1 30 7 45 7 50 -1
5 -8 15 -8 34 0 17 6 25 6 21 0 -7 -12 -3 -12 19 -4 9 3 13 11 9 18 -4 6 1 5
10 -2 9 -8 21 -11 27 -7 5 3 10 1 10 -6 0 -7 11 -10 29 -7 17 2 28 1 25 -4 -3
-4 -12 -8 -20 -8 -8 0 -12 -5 -9 -10 4 -6 11 -8 16 -5 5 3 6 -1 3 -9 -4 -9 1
-18 10 -22 9 -3 13 -10 10 -15 -3 -5 -10 -7 -15 -4 -5 4 -9 1 -9 -5 0 -7 15
-10 39 -7 22 2 46 0 53 -4 11 -8 -42 -14 -78 -10 -6 1 -11 -13 -11 -29 0 -34
17 -35 32 -2 5 12 13 22 17 22 13 0 9 -10 -12 -37 -34 -44 -21 -59 19 -24 14
12 20 25 15 33 -5 10 -4 10 5 2 10 -9 9 -17 -4 -38 -17 -25 -16 -26 1 -26 18
0 47 -44 36 -54 -9 -10 -22 5 -22 25 0 10 -5 19 -11 19 -5 0 -7 -6 -4 -12 4
-7 0 -5 -8 5 -16 19 -42 14 -51 -10 -10 -24 2 -29 19 -7 8 10 15 14 15 7 0 -6
9 -15 21 -18 12 -4 19 -13 17 -23 -2 -10 3 -22 12 -29 13 -11 13 -12 -2 -13
-19 0 -24 -15 -9 -24 4 -3 17 4 27 15 18 20 18 21 -1 35 -24 18 -15 18 16 1
13 -7 25 -19 27 -26 1 -7 -2 -10 -8 -6 -11 7 -40 -18 -40 -35 0 -6 -4 -8 -10
-5 -5 3 -10 1 -10 -4 0 -6 9 -11 20 -11 11 0 20 -7 20 -15 0 -8 5 -15 11 -15
5 0 8 4 5 9 -3 5 2 12 11 15 10 4 14 4 10 0 -4 -4 -2 -13 5 -21 9 -11 7 -12
-7 -7 -11 5 -16 3 -12 -2 4 -6 -6 -9 -23 -6 -16 2 -28 7 -27 11 1 3 -2 7 -8 9
-5 1 -10 -6 -10 -15 1 -10 6 -17 13 -15 7 1 12 -5 12 -13 0 -8 6 -15 13 -16
10 0 10 -2 0 -6 -25 -9 -13 -23 17 -19 17 2 28 1 25 -2 -3 -3 4 -16 16 -28 16
-17 19 -29 14 -53 -8 -37 -6 -47 8 -43 6 2 5 -4 -3 -12 -7 -9 -21 -16 -31 -16
-11 0 -19 -4 -19 -10 0 -5 7 -10 15 -10 13 0 14 -4 5 -20 -7 -13 -7 -20 -1
-20 6 0 13 11 17 25 3 13 13 30 22 37 15 11 15 11 5 -2 -6 -8 -13 -28 -15 -45
-2 -22 -9 -31 -26 -33 -18 -3 -22 -8 -17 -25 5 -18 4 -19 -4 -7 -10 13 -12 13
-21 0 -5 -8 -8 -21 -5 -28 3 -9 0 -10 -15 -2 -15 8 -21 6 -29 -9 -6 -10 -7
-22 -3 -26 4 -5 2 -5 -5 -2 -17 10 -43 -3 -44 -22 0 -10 -2 -11 -6 -3 -6 16
-20 15 -27 -3 -7 -19 3 -45 17 -45 7 0 7 4 -1 12 -22 22 -13 29 10 8 12 -11
30 -20 40 -20 11 0 17 -4 13 -10 -3 -5 -12 -7 -20 -3 -11 3 -13 1 -9 -10 3 -8
1 -18 -5 -22 -17 -10 -13 -28 4 -21 8 3 15 1 15 -3 0 -5 -6 -11 -12 -14 -7 -2
-10 -7 -7 -11 9 -10 39 5 39 19 0 19 17 28 26 14 4 -8 3 -9 -4 -5 -17 10 -15
-4 2 -23 16 -17 4 -53 -11 -37 -4 5 -2 11 5 13 6 3 9 9 6 14 -3 6 -11 6 -20
-2 -12 -10 -11 -15 3 -40 16 -27 16 -29 -3 -50 -19 -22 -19 -22 4 -15 14 5 22
3 22 -5 0 -8 -10 -9 -30 -5 -18 3 -29 2 -25 -3 3 -5 -5 -11 -17 -13 -12 -2
-28 -14 -35 -28 -12 -24 -13 -25 -13 -2 0 27 -4 27 -60 -1 -25 -12 -58 -22
-73 -20 -21 1 -27 -2 -23 -12 3 -8 0 -17 -6 -21 -6 -4 -8 -3 -4 4 3 6 2 13 -3
16 -5 4 -12 -2 -16 -13 -4 -13 -12 -17 -25 -14 -11 3 -32 -2 -46 -12 -15 -10
-23 -12 -19 -4 6 9 3 10 -11 5 -39 -16 -73 -24 -78 -19 -10 10 -33 -16 -31
-34 4 -34 16 -52 32 -46 12 5 14 1 8 -15 -8 -26 3 -28 22 -4 13 16 14 15 8 -5
-8 -28 11 -31 20 -3 8 25 -3 43 -21 36 -8 -3 -14 -1 -14 3 0 5 -3 18 -7 28 -4
11 7 6 30 -16 21 -19 37 -40 37 -47 0 -7 6 -14 13 -17 9 -3 9 -8 -2 -18 -8 -8
-11 -9 -7 -2 9 16 -11 26 -21 11 -16 -27 -7 -52 20 -53 4 0 7 -3 7 -7 0 -5 0
-13 0 -19 0 -5 -4 -7 -10 -4 -5 3 -10 2 -10 -3 0 -7 62 -42 75 -42 3 0 5 5 5
12 0 6 -3 9 -6 5 -14 -13 -34 23 -28 49 5 18 9 22 15 13 4 -8 3 -16 -3 -20
-14 -9 -1 -29 18 -29 8 0 24 -9 35 -19 18 -17 19 -22 8 -43 -15 -26 -20 -103
-6 -89 4 4 10 17 11 27 2 10 9 20 16 22 9 3 11 -1 7 -11 -3 -9 1 -18 11 -22
12 -5 13 -8 4 -14 -14 -8 -6 -41 10 -41 5 0 6 -4 3 -10 -3 -5 -1 -10 5 -10 6
0 10 6 9 13 -2 14 18 67 26 67 2 0 0 -12 -5 -26 -12 -30 -4 -48 16 -40 8 3 14
1 14 -4 0 -6 12 -10 26 -10 14 0 23 -4 19 -9 -9 -16 12 -22 24 -7 8 10 9 16 1
21 -5 3 -10 10 -10 16 0 5 9 0 21 -12 11 -11 27 -18 35 -15 7 3 13 2 13 -2 -4
-23 4 -24 16 -2 8 14 14 19 15 12 0 -8 9 -11 28 -7 l27 5 -27 -11 c-16 -6 -28
-15 -28 -20 0 -6 8 -6 19 1 26 13 31 13 31 -4 0 -9 9 -14 20 -13 11 1 19 6 16
12 -2 7 2 12 10 12 8 0 14 -6 14 -12 0 -6 14 -12 30 -12 17 0 30 3 30 7 0 4 7
7 15 7 8 0 15 -6 15 -13 0 -10 10 -12 33 -8 24 4 28 3 17 -5 -18 -12 -9 -24
14 -15 9 3 16 14 17 23 1 9 6 1 11 -16 6 -18 14 -33 18 -33 3 0 15 -7 26 -16
18 -14 18 -15 -4 -4 -27 13 -27 14 -36 -22 -5 -24 -2 -28 28 -39 19 -7 33 -16
30 -21 -8 -13 10 -9 33 7 16 11 24 12 29 4 4 -8 3 -9 -4 -5 -7 4 -12 2 -12 -3
0 -6 5 -11 10 -11 6 0 10 -123 10 -350 l0 -350 -758 0 -758 0 -25 83 c-21 73
-24 98 -22 229 3 135 1 152 -22 212 -14 37 -25 83 -25 104 0 20 -12 75 -26
122 -15 47 -34 114 -44 150 -20 76 -26 90 -93 190 -56 85 -166 197 -226 231
-23 12 -43 30 -46 40 -19 59 -216 154 -403 194 -64 14 -148 34 -187 44 -38 11
-81 20 -95 20 -14 1 -39 13 -55 29 -17 15 -56 48 -87 75 -49 41 -59 56 -78
115 -12 37 -55 135 -95 217 -41 83 -83 179 -95 215 -12 36 -25 67 -30 70 -8 5
-70 134 -70 145 0 3 4 4 8 1 4 -2 8 4 8 15 0 10 -4 19 -9 19 -4 0 -5 5 -2 11
4 6 14 8 22 5 12 -5 14 -1 11 17 -5 27 8 42 37 44 11 0 56 4 100 7 139 11 185
11 188 1 2 -6 11 -4 20 4 11 8 28 11 47 7 19 -3 30 -1 30 5 0 8 5 7 15 -1 9
-7 25 -10 41 -6 18 5 30 3 36 -6 7 -10 8 -8 4 4 -3 10 -1 20 4 23 6 4 10 1 10
-5 0 -7 7 -10 15 -6 8 3 15 1 15 -4 0 -11 41 -9 58 3 8 6 12 6 12 -1 0 -5 26
-15 58 -20 60 -11 77 -6 117 34 14 15 18 15 27 3 6 -10 11 -10 14 -3 3 8 16 9
39 4 19 -4 36 -5 39 -2 4 3 6 -1 6 -8 0 -10 13 -11 58 -5 31 5 111 9 177 11
66 1 152 6 190 12 59 7 116 8 195 1 8 -1 36 1 62 5 26 4 53 4 60 -1 7 -4 16
-8 19 -8 16 0 68 -49 62 -58 -4 -6 0 -8 10 -4 9 3 22 1 29 -6 21 -20 61 -14
86 12 17 19 22 21 22 7 0 -9 5 -16 11 -16 5 0 7 6 3 13 -4 6 5 1 21 -13 19
-17 26 -20 22 -9 -4 13 -1 16 14 12 20 -6 27 -23 8 -23 -5 0 -7 -5 -3 -11 5
-8 10 -6 16 5 5 9 13 14 18 11 5 -3 12 -1 15 5 5 8 11 7 21 -1 11 -9 14 -9 14
1 0 9 3 10 13 1 17 -13 27 -5 20 17 -4 13 -2 14 4 4 7 -10 16 -10 37 -2 15 5
25 6 22 2 -3 -5 8 -9 24 -9 16 0 27 4 24 8 -2 4 14 6 37 4 34 -3 40 -1 34 12
-3 9 -3 37 1 62 4 25 9 40 11 34 3 -7 13 -13 24 -13 10 0 19 6 20 13 0 10 2
10 6 0 2 -7 9 -13 15 -13 6 0 8 7 5 14 -4 10 -1 13 8 10 8 -3 17 -15 21 -26z
m-3776 -9 c0 -5 -6 -9 -14 -9 -8 0 -16 -7 -19 -15 -8 -19 -125 -78 -143 -71
-29 11 2 39 120 108 29 17 56 11 56 -13z m213 -37 c-6 -15 -5 -16 12 -2 11 9
16 10 11 3 -4 -8 -1 -13 8 -13 9 0 16 -4 16 -10 0 -5 6 -10 14 -10 8 0 18 -5
22 -12 5 -8 2 -9 -9 -5 -10 3 -17 2 -17 -3 0 -6 7 -10 15 -10 9 0 12 -6 8 -17
-4 -11 -3 -14 5 -9 8 4 10 2 6 -8 -3 -8 -12 -17 -20 -20 -8 -3 -14 -16 -14
-28 0 -19 -2 -20 -10 -8 -8 12 -10 10 -10 -10 0 -18 -3 -21 -9 -11 -7 11 -10
10 -15 -5 -7 -23 -55 -62 -116 -94 -25 -14 -52 -30 -60 -36 -8 -6 -31 -14 -50
-17 -19 -3 -44 -7 -55 -10 -23 -4 -80 24 -80 41 0 5 -3 13 -7 17 -11 11 44 65
92 91 123 66 267 185 253 208 -3 5 -1 6 5 2 6 -4 8 -14 5 -24z m3002 -60 c-3
-3 -11 0 -18 7 -9 10 -8 11 6 5 10 -3 15 -9 12 -12z m915 1 c-8 -3 -22 -11
-30 -17 -13 -10 -13 -9 -1 7 7 9 21 17 30 16 13 0 14 -1 1 -6z m44 -8 c-4 -8
-7 -15 -9 -15 -2 0 -5 7 -9 15 -3 9 0 15 9 15 9 0 12 -6 9 -15z m-29 -15 c3
-5 -1 -10 -10 -10 -9 0 -13 5 -10 10 3 6 8 10 10 10 2 0 7 -4 10 -10z m-4379
-65 c-22 -22 -29 -23 -32 -2 -2 12 5 17 23 17 22 0 23 -2 9 -15z m4408 -93 c3
-5 -1 -9 -9 -9 -8 0 -12 4 -9 9 3 4 7 8 9 8 2 0 6 -4 9 -8z m196 -132 c0 -5
-2 -10 -4 -10 -3 0 -8 5 -11 10 -3 6 -1 10 4 10 6 0 11 -4 11 -10z m-115 -10
c3 -5 1 -10 -4 -10 -6 0 -11 5 -11 10 0 6 2 10 4 10 3 0 8 -4 11 -10z m-5848
-31 c6 -6 9 -18 6 -27 -4 -9 -2 -13 4 -9 6 4 13 -8 17 -31 9 -59 7 -130 -5
-138 -8 -5 -8 -8 0 -14 18 -10 4 -33 -32 -54 -19 -11 -27 -21 -19 -23 9 -3 5
-12 -13 -29 -30 -28 -29 -29 16 -10 19 7 40 11 47 9 6 -3 12 0 12 7 0 6 4 9 9
6 5 -3 7 -14 4 -25 -6 -23 23 -81 41 -81 28 0 37 -26 26 -75 -6 -26 -14 -73
-19 -104 -5 -31 -12 -65 -16 -75 -6 -13 -5 -17 3 -12 7 4 10 -1 9 -13 -1 -11
-3 -18 -6 -16 -5 6 -91 -125 -91 -139 0 -5 6 -2 13 8 7 9 17 16 23 14 6 -2 30
18 54 45 38 41 70 60 70 40 0 -13 -53 -119 -84 -168 -30 -48 -39 -61 -78 -107
-10 -12 -18 -27 -18 -35 0 -7 -7 -16 -15 -19 -8 -4 -15 -12 -15 -18 0 -7 -18
-25 -40 -42 -43 -32 -54 -52 -17 -33 13 7 4 -8 -24 -37 -46 -48 -111 -170
-129 -244 -8 -34 -13 -49 -43 -140 -8 -25 -32 -83 -53 -130 -20 -46 -40 -107
-42 -134 -6 -60 13 -56 21 5 3 23 11 47 17 53 9 8 11 6 5 -12 -3 -12 -8 -67
-9 -121 -2 -54 -6 -103 -9 -108 -4 -6 -7 -52 -8 -102 l-1 -91 -1164 0 -1164 0
0 919 c0 833 1 919 16 925 9 3 59 11 112 17 54 5 105 12 115 15 11 4 29 8 40
9 45 7 244 34 291 40 27 3 52 7 55 9 4 3 25 7 46 10 194 24 235 30 235 37 0 5
6 6 13 3 8 -3 35 0 60 6 26 5 75 12 109 16 35 3 102 12 151 20 48 8 124 17
169 20 45 3 87 9 93 13 10 8 57 18 120 25 27 4 141 19 235 32 20 2 46 6 57 9
35 6 232 34 298 41 33 4 65 9 70 13 6 3 19 6 30 7 23 1 161 20 223 30 28 4 42
3 42 -5 0 -6 7 -11 16 -11 8 0 12 -4 9 -10 -3 -5 3 -10 14 -10 12 0 21 6 21
13 0 9 2 9 9 -1 6 -10 11 -5 21 17 13 32 28 39 47 20z m5860 -41 c-3 -8 -6 -5
-6 6 -1 11 2 17 5 13 3 -3 4 -12 1 -19z m-8 -82 c-9 -8 -10 -7 -5 7 3 10 7 24
7 30 1 7 3 4 6 -7 3 -10 -1 -23 -8 -30z m98 -38 c-3 -7 -5 -2 -5 12 0 14 2 19
5 13 2 -7 2 -19 0 -25z m-3387 -573 l0 -555 -830 0 -830 0 0 555 0 555 830 0
830 0 0 -555z m3334 406 c17 -19 17 -19 -1 -15 -11 3 -20 12 -20 20 0 18 0 18
21 -5z m-2678 -79 c-6 -5 -36 65 -36 82 0 6 9 -9 20 -33 11 -24 18 -46 16 -49z
m2654 44 c0 -2 -8 -10 -17 -17 -16 -13 -17 -12 -4 4 13 16 21 21 21 13z m-43
-71 c0 -8 -4 -12 -9 -9 -5 3 -6 10 -3 15 9 13 12 11 12 -6z m-70 -17 c-3 -8
-6 -5 -6 6 -1 11 2 17 5 13 3 -3 4 -12 1 -19z m43 8 c0 -2 -7 -7 -16 -10 -8
-3 -12 -2 -9 4 6 10 25 14 25 6z m-53 -52 c2 -13 1 -15 -4 -4 -3 8 -11 19 -17
23 -7 6 -6 7 4 4 8 -2 16 -12 17 -23z m-2397 -74 l45 -41 -48 4 c-30 3 -55 11
-65 23 -16 17 -16 17 1 5 21 -16 22 -2 2 25 -8 10 -15 25 -15 32 0 17 22 4 80
-48z m2419 24 c-6 -8 -15 -12 -18 -8 -3 4 0 9 7 11 6 3 9 10 6 15 -4 7 -2 8 5
4 9 -6 9 -11 0 -22z m25 -180 c3 -8 2 -12 -4 -9 -6 3 -10 10 -10 16 0 14 7 11
14 -7z m-421 -217 c-9 -15 -21 4 -15 25 5 21 6 21 12 2 4 -10 5 -22 3 -27z
m-83 8 c0 -8 -4 -15 -8 -15 -5 0 -9 7 -9 15 0 8 4 15 9 15 4 0 8 -7 8 -15z
m120 1 c0 -2 -8 -10 -17 -17 -16 -13 -17 -12 -4 4 13 16 21 21 21 13z m64 -11
c-4 -8 -7 -15 -9 -15 -2 0 -5 7 -9 15 -3 9 0 15 9 15 9 0 12 -6 9 -15z m-12
-43 c3 -11 0 -19 -8 -19 -16 0 -16 0 -8 21 8 21 11 20 16 -2z m95 -44 c-3 -8
-6 -5 -6 6 -1 11 2 17 5 13 3 -3 4 -12 1 -19z m-92 3 c3 -5 1 -12 -5 -16 -5
-3 -10 1 -10 9 0 18 6 21 15 7z m43 -98 c7 -7 9 -13 4 -13 -5 0 -21 11 -35 24
-14 13 -29 21 -33 17 -4 -3 -4 0 0 7 8 13 16 9 64 -35z m38 -92 c-4 -5 0 -12
6 -14 7 -3 2 -6 -11 -6 -20 -1 -21 1 -11 14 14 16 25 21 16 6z m-3946 -873 c0
-5 -9 -8 -21 -8 -11 0 -29 -5 -40 -11 -16 -8 -23 -6 -39 13 l-18 23 36 5 c36
5 82 -8 82 -22z m-1950 -129 c0 -5 -4 -9 -8 -9 -5 0 -9 7 -9 15 0 8 4 12 9 9
4 -3 8 -9 8 -15z"/>
<path d="M5136 3021 c-4 -5 -2 -12 4 -16 6 -4 7 -11 4 -17 -4 -6 -2 -8 4 -5
10 7 11 32 0 42 -3 4 -9 2 -12 -4z"/>
<path d="M5107 2959 c4 -13 8 -18 11 -10 2 7 -1 18 -6 23 -8 8 -9 4 -5 -13z"/>
<path d="M8550 2769 c0 -5 5 -7 10 -4 6 3 10 8 10 11 0 2 -4 4 -10 4 -5 0 -10
-5 -10 -11z"/>
<path d="M8750 2699 c0 -5 5 -7 10 -4 6 3 10 8 10 11 0 2 -4 4 -10 4 -5 0 -10
-5 -10 -11z"/>
<path d="M8870 2703 c0 -17 19 -37 27 -29 4 5 2 11 -5 13 -6 3 -10 9 -6 14 3
5 0 9 -5 9 -6 0 -11 -3 -11 -7z"/>
<path d="M8913 2665 c-20 -22 -16 -45 7 -45 11 0 20 5 20 11 0 5 -4 7 -10 4
-5 -3 -10 1 -10 9 0 9 5 16 10 16 6 0 10 5 10 10 0 14 -13 12 -27 -5z"/>
<path d="M8870 2620 c0 -5 5 -10 11 -10 5 0 7 5 4 10 -3 6 -8 10 -11 10 -2 0
-4 -4 -4 -10z"/>
<path d="M8925 2600 c3 -5 8 -10 11 -10 2 0 4 5 4 10 0 6 -5 10 -11 10 -5 0
-7 -4 -4 -10z"/>
<path d="M8900 2570 c0 -5 5 -10 10 -10 6 0 10 5 10 10 0 6 -4 10 -10 10 -5 0
-10 -4 -10 -10z"/>
<path d="M8935 2520 c-3 -5 1 -10 10 -10 9 0 13 5 10 10 -3 6 -8 10 -10 10 -2
0 -7 -4 -10 -10z"/>
<path d="M9005 2400 c3 -5 8 -10 11 -10 2 0 4 5 4 10 0 6 -5 10 -11 10 -5 0
-7 -4 -4 -10z"/>
<path d="M9092 2208 c20 -16 24 -36 14 -67 -6 -17 -3 -28 9 -40 16 -15 17 -14
10 7 -4 13 -2 29 5 37 17 21 -14 74 -44 75 -6 0 -3 -6 6 -12z"/>
<path d="M9050 2189 c0 -5 5 -7 10 -4 6 3 10 8 10 11 0 2 -4 4 -10 4 -5 0 -10
-5 -10 -11z"/>
<path d="M9080 2180 c0 -5 5 -10 10 -10 6 0 10 5 10 10 0 6 -4 10 -10 10 -5 0
-10 -4 -10 -10z"/>
<path d="M6566 1947 c3 -10 9 -15 12 -12 3 3 0 11 -7 18 -10 9 -11 8 -5 -6z"/>
<path d="M8900 1870 c-13 -9 -13 -11 0 -20 22 -15 30 -12 30 10 0 22 -8 25
-30 10z"/>
<path d="M8860 1860 c0 -5 5 -10 10 -10 6 0 10 5 10 10 0 6 -4 10 -10 10 -5 0
-10 -4 -10 -10z"/>
<path d="M8965 1799 c-4 -6 -5 -13 -2 -16 7 -7 27 6 27 18 0 12 -17 12 -25 -2z"/>
<path d="M9003 1683 c1 -14 8 -28 15 -31 13 -4 16 16 6 42 -10 25 -23 18 -21
-11z"/>
<path d="M8990 1640 c0 -5 5 -10 10 -10 6 0 10 5 10 10 0 6 -4 10 -10 10 -5 0
-10 -4 -10 -10z"/>
<path d="M8490 1450 c0 -6 -4 -8 -10 -5 -5 3 -10 2 -10 -2 0 -5 16 -9 35 -9
20 0 34 5 32 11 -5 14 -47 19 -47 5z"/>
<path d="M8435 1440 c-3 -5 -1 -10 4 -10 6 0 11 5 11 10 0 6 -2 10 -4 10 -3 0
-8 -4 -11 -10z"/>
<path d="M8525 1410 c3 -5 8 -10 11 -10 2 0 4 5 4 10 0 6 -5 10 -11 10 -5 0
-7 -4 -4 -10z"/>
<path d="M8510 1380 c0 -5 5 -10 10 -10 6 0 10 5 10 10 0 6 -4 10 -10 10 -5 0
-10 -4 -10 -10z"/>
<path d="M8550 1360 c0 -5 5 -10 11 -10 5 0 7 5 4 10 -3 6 -8 10 -11 10 -2 0
-4 -4 -4 -10z"/>
<path d="M8510 1350 c0 -5 5 -10 10 -10 6 0 10 5 10 10 0 6 -4 10 -10 10 -5 0
-10 -4 -10 -10z"/>
<path d="M8546 1331 c-4 -5 -2 -12 3 -15 5 -4 12 -2 15 3 4 5 2 12 -3 15 -5 4
-12 2 -15 -3z"/>
<path d="M8580 1334 c0 -3 6 -12 14 -20 8 -7 16 -19 19 -26 2 -7 7 -10 11 -7
10 9 -2 33 -24 47 -11 7 -20 10 -20 6z"/>
<path d="M8570 1300 c0 -5 5 -10 10 -10 6 0 10 5 10 10 0 6 -4 10 -10 10 -5 0
-10 -4 -10 -10z"/>
<path d="M8530 1280 c0 -5 5 -10 10 -10 6 0 10 5 10 10 0 6 -4 10 -10 10 -5 0
-10 -4 -10 -10z"/>
<path d="M8724 1195 c4 -13 2 -14 -14 -5 -16 8 -24 7 -36 -5 -14 -13 -14 -17
1 -31 9 -9 19 -13 23 -10 3 4 0 11 -8 16 -18 11 -8 23 13 14 9 -3 13 -12 10
-20 -3 -8 0 -14 7 -14 6 0 9 -4 5 -9 -3 -5 0 -13 6 -17 9 -5 10 1 5 19 -3 14
-2 29 4 32 16 10 12 45 -6 45 -10 0 -14 -5 -10 -15z"/>
<path d="M8780 1070 c0 -5 5 -10 10 -10 6 0 10 5 10 10 0 6 -4 10 -10 10 -5 0
-10 -4 -10 -10z"/>
<path d="M8870 1019 c0 -5 5 -7 10 -4 6 3 10 8 10 11 0 2 -4 4 -10 4 -5 0 -10
-5 -10 -11z"/>
<path d="M8970 1019 c0 -5 5 -7 10 -4 6 3 10 8 10 11 0 2 -4 4 -10 4 -5 0 -10
-5 -10 -11z"/>
<path d="M9325 960 c-3 -5 -1 -10 4 -10 6 0 11 5 11 10 0 6 -2 10 -4 10 -3 0
-8 -4 -11 -10z"/>
<path d="M9290 940 c0 -5 5 -10 10 -10 6 0 10 5 10 10 0 6 -4 10 -10 10 -5 0
-10 -4 -10 -10z"/>
<path d="M9317 926 c-10 -8 -15 -20 -11 -30 9 -24 26 -19 19 5 -5 15 -4 19 4
15 6 -4 11 0 11 8 0 19 0 19 -23 2z"/>
<path d="M9350 850 c0 -5 5 -10 11 -10 5 0 7 5 4 10 -3 6 -8 10 -11 10 -2 0
-4 -4 -4 -10z"/>
<path d="M9440 809 c0 -5 5 -7 10 -4 6 3 10 8 10 11 0 2 -4 4 -10 4 -5 0 -10
-5 -10 -11z"/>
<path d="M3136 2235 c-9 -26 -7 -32 5 -12 6 10 9 21 6 23 -2 3 -7 -2 -11 -11z"/>
<path d="M4580 2033 c1 -24 37 -183 43 -190 13 -12 26 10 32 55 10 76 21 80
34 13 20 -103 38 -89 66 53 8 44 13 81 10 84 -10 11 -22 -14 -35 -73 l-14 -60
-14 68 c-9 40 -20 67 -28 67 -11 0 -34 -77 -34 -116 0 -33 -18 -2 -25 42 -3
26 -9 53 -12 60 -7 20 -23 17 -23 -3z"/>
<path d="M4796 2028 c-10 -14 -16 -44 -16 -81 0 -48 4 -62 25 -82 29 -30 46
-31 70 -5 24 26 31 124 13 160 -19 35 -70 40 -92 8z m78 -46 c11 -53 -3 -105
-29 -111 -26 -5 -45 25 -45 70 0 58 16 91 43 87 17 -2 24 -12 31 -46z"/>
<path d="M4930 1950 c0 -60 4 -100 10 -100 6 0 10 28 11 63 l1 62 21 -62 c11
-35 26 -63 32 -63 6 0 17 24 24 53 22 84 30 89 31 15 0 -39 4 -68 10 -68 6 0
10 40 10 100 0 129 -17 135 -50 19 -14 -49 -26 -75 -31 -68 -4 7 -15 43 -25
81 -27 103 -44 91 -44 -32z"/>
<path d="M5120 1950 l0 -100 35 0 c19 0 35 5 35 10 0 6 -13 10 -30 10 -28 0
-30 3 -30 35 0 32 2 35 30 35 38 0 40 18 3 22 -24 3 -28 8 -28 33 0 25 4 30
28 33 39 5 33 22 -8 22 l-35 0 0 -100z"/>
<path d="M5220 1950 c0 -60 4 -100 10 -100 6 0 10 31 10 72 0 82 7 81 43 -7
38 -89 47 -83 47 34 0 116 -18 139 -22 29 l-3 -73 -29 73 c-42 103 -56 96 -56
-28z"/>
<path d="M5370 2029 c-16 -30 -5 -64 30 -89 17 -12 30 -30 30 -39 0 -26 -25
-44 -50 -36 -11 4 -20 2 -20 -4 0 -22 60 -16 78 7 21 27 14 53 -24 87 -42 39
-43 68 -1 73 36 4 35 22 -3 22 -20 0 -33 -7 -40 -21z"/>
<path d="M4783 1435 c0 -66 1 -71 6 -31 8 69 31 74 31 7 0 -28 5 -51 10 -51
11 0 14 69 4 94 -3 9 -14 16 -24 16 -11 0 -20 9 -23 23 -2 12 -4 -14 -4 -58z"/>
<path d="M4702 1488 c-19 -19 -14 -36 14 -54 32 -21 30 -59 -3 -58 -13 0 -23
-3 -23 -8 0 -14 47 -9 60 7 15 19 4 52 -21 60 -26 9 -24 44 4 55 21 8 21 9 2
9 -12 1 -26 -4 -33 -11z"/>
<path d="M5072 1428 l1 -73 6 60 c5 48 8 55 14 37 5 -13 11 -21 14 -19 5 6
-25 67 -32 67 -3 0 -4 -33 -3 -72z"/>
<path d="M4864 1456 c-3 -8 -4 -31 -2 -52 3 -34 6 -39 28 -39 22 0 25 5 28 38
3 40 -11 67 -35 67 -7 0 -16 -6 -19 -14z m41 -42 c0 -28 -4 -39 -15 -39 -16 0
-26 45 -16 72 11 28 31 7 31 -33z"/>
<path d="M4963 1463 c-9 -3 -13 -28 -12 -81 1 -42 4 -65 6 -50 3 18 11 28 26
30 16 2 23 11 25 32 7 60 -9 84 -45 69z m32 -49 c0 -28 -4 -39 -15 -39 -16 0
-26 45 -16 72 11 28 31 7 31 -33z"/>
<path d="M5179 1446 c-14 -30 -4 -75 18 -83 19 -8 43 22 42 51 -1 14 -4 10
-10 -11 -17 -59 -60 -27 -45 33 6 24 30 33 39 14 3 -6 4 -5 3 2 -5 24 -35 20
-47 -6z"/>
<path d="M5251 1454 c0 -11 3 -14 6 -6 3 7 2 16 -1 19 -3 4 -6 -2 -5 -13z"/>
<path d="M5284 1428 c-7 -39 -8 -41 -15 -18 -7 22 -8 20 -6 -10 2 -40 20 -44
25 -5 5 35 22 31 22 -5 0 -42 17 -37 29 8 15 53 12 85 -4 37 l-12 -40 -8 38
c-10 49 -21 47 -31 -5z"/>
<path d="M5110 1414 c1 -16 29 -60 29 -44 0 8 -6 24 -14 34 -8 11 -15 16 -15
10z"/>
<path d="M9660 1620 l0 -1500 4460 0 4460 0 0 1500 0 1500 -4460 0 -4460 0 0
-1500z m136 1390 c7 -58 28 -140 52 -210 22 -63 52 -151 67 -195 55 -163 68
-189 124 -250 30 -33 58 -59 63 -58 12 4 25 -29 31 -84 5 -40 3 -51 -7 -47
-23 9 -44 -57 -66 -202 -12 -76 -28 -166 -36 -199 -7 -33 -14 -77 -14 -97 0
-37 13 -57 25 -38 9 15 25 12 25 -5 0 -9 -11 -27 -25 -41 -14 -14 -25 -31 -25
-39 0 -19 66 -177 90 -218 11 -18 20 -40 20 -50 0 -9 11 -22 23 -28 35 -16 52
-52 81 -178 20 -87 34 -123 57 -152 17 -22 27 -39 23 -39 -4 0 0 -8 9 -17 8
-10 21 -40 28 -68 7 -27 23 -66 35 -85 13 -19 46 -93 74 -165 63 -162 101
-246 151 -337 21 -39 39 -72 39 -74 0 -2 -218 -4 -485 -4 l-485 0 0 1490 0
1491 57 -3 57 -3 12 -95z m1320 62 c-7 -63 -46 -126 -46 -75 0 9 -3 13 -6 10
-9 -9 -44 58 -44 83 0 17 7 20 50 20 l51 0 -5 -38z m2584 21 c1 -17 1 -17 14
0 19 25 28 21 21 -11 -4 -22 0 -35 20 -56 22 -24 32 -27 61 -23 19 3 34 2 34
-4 0 -5 -4 -9 -10 -9 -14 0 -13 -43 2 -58 17 -17 31 -15 24 4 -4 12 -2 15 9
10 11 -4 15 2 15 24 0 16 5 32 10 35 6 3 10 13 10 21 0 12 -4 12 -20 2 -27
-17 -35 -4 -14 25 41 54 58 57 293 57 198 0 221 -2 242 -19 13 -10 34 -21 47
-25 12 -4 22 -14 22 -22 0 -8 4 -14 8 -14 4 0 15 -12 24 -27 10 -16 29 -41 44
-58 46 -52 56 -74 59 -123 2 -26 3 -51 4 -55 1 -10 74 -53 84 -49 4 1 7 -4 7
-12 0 -8 3 -22 7 -32 5 -13 3 -16 -10 -11 -20 7 -49 -2 -42 -13 2 -4 -4 -15
-15 -25 -13 -12 -18 -26 -15 -39 6 -21 6 -21 -10 -1 -17 21 -18 21 -50 -1 -34
-24 -63 -16 -105 29 -22 23 -41 47 -42 52 -3 14 -37 50 -48 50 -4 0 -23 11
-42 25 -18 14 -36 24 -40 22 -5 -1 -8 2 -8 7 0 6 -18 20 -40 32 -22 13 -40 26
-40 31 0 4 -5 8 -11 8 -12 0 -44 30 -32 30 4 0 -3 9 -17 20 -25 19 -25 19 -47
-2 -15 -14 -23 -33 -23 -54 0 -18 -5 -34 -11 -36 -7 -2 -7 -12 0 -29 7 -21 6
-30 -7 -43 -15 -16 -16 -18 -1 -29 14 -11 14 -14 -3 -32 -11 -11 -14 -21 -9
-23 7 -2 5 -10 -4 -19 -8 -8 -13 -25 -11 -39 3 -13 2 -23 -2 -23 -20 3 -25 -2
-12 -12 13 -9 13 -10 0 -7 -15 2 -89 -24 -150 -53 -19 -10 -37 -13 -38 -8 -2
5 -9 6 -15 2 -7 -4 -5 2 3 12 8 10 10 16 3 12 -6 -4 -14 -3 -18 3 -9 15 -19
12 -45 -10 -13 -11 -18 -20 -11 -20 8 0 7 -5 -3 -16 -9 -8 -16 -31 -16 -49 0
-35 -15 -55 -23 -33 -2 7 -8 0 -12 -17 -4 -16 -11 -34 -15 -40 -4 -5 -11 -30
-15 -55 -13 -85 -5 -80 -116 -80 -81 0 -99 -3 -99 -15 0 -20 -8 -19 -58 5 -22
11 -46 20 -51 20 -11 0 -19 25 -56 182 -14 59 -32 120 -40 135 -8 15 -15 35
-15 44 0 9 -9 41 -19 72 -11 31 -26 93 -35 138 -12 63 -22 89 -43 111 -15 15
-32 28 -38 28 -21 0 -184 125 -174 134 2 2 27 6 54 7 28 2 72 14 98 27 28 13
57 20 68 17 11 -4 19 -2 19 4 0 8 85 11 270 11 250 0 270 -1 270 -17z m1811
-1 c0 -14 2 -13 8 2 7 19 8 19 14 1 10 -24 4 -28 -42 -28 -26 0 -42 -5 -46
-14 -3 -8 -12 -13 -20 -9 -8 3 -17 1 -20 -4 -4 -7 -13 -6 -24 0 -11 5 -34 10
-52 12 -38 2 -89 24 -89 38 0 4 -8 11 -17 13 -10 3 51 5 135 5 135 0 152 -2
153 -16z m179 -49 c0 -41 -4 -63 -9 -57 -16 16 -17 124 -1 124 6 0 10 -29 10
-67z m1520 44 c-19 -13 -50 -29 -68 -35 -19 -6 -49 -24 -67 -39 -18 -16 -68
-50 -111 -77 -44 -27 -103 -65 -133 -85 -29 -20 -112 -74 -185 -122 -330 -215
-433 -284 -456 -307 -14 -14 -40 -31 -58 -39 -36 -15 -53 -26 -372 -236 -113
-74 -230 -149 -262 -166 -31 -18 -59 -38 -62 -46 -2 -7 -92 -71 -198 -141
-265 -174 -328 -217 -325 -220 1 -1 74 -9 162 -19 263 -28 426 -50 506 -70 16
-4 29 -2 33 4 13 20 56 13 65 -11 9 -23 9 -23 20 5 6 15 14 27 19 27 4 0 25
18 47 40 22 22 76 59 119 81 44 22 91 48 105 58 14 10 55 32 91 48 36 17 72
38 80 48 8 10 46 33 85 51 38 19 95 50 125 68 50 31 111 66 180 102 14 7 36
27 48 44 13 16 30 30 39 30 26 0 98 40 143 80 44 39 168 110 192 110 8 0 27
14 44 31 16 17 53 43 82 56 29 14 57 34 63 44 5 11 17 19 25 19 8 0 12 5 9 10
-3 6 0 10 8 10 8 0 20 7 27 15 11 13 15 13 21 3 7 -10 9 -10 9 0 0 6 9 12 20
12 10 0 34 13 52 28 18 16 54 41 81 56 26 16 44 32 41 37 -3 5 -1 8 4 7 17 -5
102 37 102 51 0 7 6 11 15 7 8 -3 20 0 27 7 7 7 22 14 33 15 11 2 29 12 40 22
39 35 104 73 306 179 35 18 141 78 235 132 l171 99 91 0 92 0 0 -1364 0 -1364
-25 -6 c-14 -4 -25 -13 -25 -20 0 -8 11 -23 25 -34 21 -17 25 -28 25 -77 0
-47 -4 -60 -22 -76 l-23 -18 23 -1 c12 0 22 -4 22 -10 0 -16 -1300 -14 -1301
3 -1 6 -4 23 -6 37 -3 14 -4 52 -4 85 0 57 2 62 38 92 95 80 96 82 90 119 -11
67 -39 79 -107 44 -22 -11 -50 -20 -62 -20 -13 0 -29 -9 -35 -20 -7 -11 -29
-22 -50 -25 -21 -4 -71 -18 -112 -31 -57 -19 -77 -21 -88 -13 -11 10 -12 8 -7
-5 6 -15 1 -16 -44 -10 -47 6 -51 5 -64 -21 -15 -28 -111 -77 -175 -88 -27 -5
-31 -4 -26 9 5 13 1 15 -18 9 -13 -4 -29 -13 -35 -21 -6 -8 -25 -14 -42 -14
-22 0 -36 -7 -48 -25 -20 -31 -189 -97 -170 -66 5 7 -2 11 -18 11 -17 0 -26
-5 -26 -16 0 -14 -8 -16 -41 -11 -35 5 -42 2 -46 -14 -5 -18 -16 -19 -152 -19
l-146 0 -25 52 c-77 157 -72 150 -105 144 -16 -3 -59 0 -95 8 -36 8 -61 15
-57 15 9 1 -50 61 -61 61 -8 0 -52 51 -52 60 0 4 -9 10 -21 13 -14 4 -19 12
-17 30 2 20 -26 52 -162 181 -91 86 -167 165 -169 174 -5 24 -22 43 -33 36
-21 -13 -36 16 -27 54 14 62 10 95 -18 153 -28 57 -122 155 -177 184 -47 25
-66 66 -66 138 0 60 1 63 37 87 75 50 236 216 320 329 48 64 117 157 155 208
37 50 79 113 93 140 27 54 45 130 27 119 -6 -3 -13 -2 -17 4 -4 6 -11 8 -16 5
-5 -4 -9 -2 -9 4 0 5 -3 17 -7 27 -4 12 -3 15 5 10 7 -4 12 -2 12 6 0 20 45
68 64 68 10 0 30 27 54 74 20 40 61 102 91 137 49 58 53 65 47 102 -5 29 0 55
18 101 13 33 31 94 39 134 9 40 23 84 31 97 l16 25 748 0 747 0 -35 -23z
m-1605 -227 c21 -41 19 -57 -5 -35 -11 10 -20 29 -20 42 0 31 6 29 25 -7z
m-465 -70 c20 -38 23 -105 6 -132 -9 -13 -14 -26 -12 -29 2 -2 7 -42 10 -89 5
-67 13 -98 36 -144 17 -32 30 -65 30 -72 0 -26 -19 -14 -48 29 -47 66 -72 84
-127 90 -27 3 -81 17 -120 31 -38 14 -87 26 -107 26 -55 0 -48 22 20 67 64 42
74 52 67 71 -3 7 -1 11 3 9 4 -3 13 1 20 9 7 8 9 14 5 14 -10 0 80 90 90 90 4
0 25 11 45 25 44 30 68 32 82 5z m-3048 -89 c32 -4 106 -6 164 -4 130 4 185
-11 243 -67 63 -62 82 -161 43 -235 -33 -65 -99 -108 -122 -79 -7 8 -9 14 -4
14 4 0 -3 10 -15 21 -19 18 -25 19 -32 8 -7 -12 -9 -12 -9 0 0 9 -8 12 -25 9
-14 -3 -25 -1 -25 3 0 5 -5 9 -12 9 -6 0 -22 10 -35 22 -22 20 -33 25 -73 32
-36 6 -59 28 -67 64 -4 20 -6 43 -5 49 4 20 -26 71 -45 77 -10 3 -41 7 -70 10
-97 10 -203 40 -203 58 0 3 24 11 53 16 53 10 134 8 239 -7z m706 -95 c29 -25
52 -68 52 -94 0 -11 9 -39 20 -64 18 -41 18 -69 2 -108 -4 -8 -7 -51 -8 -95
-1 -44 -3 -91 -3 -105 -4 -64 1 -108 15 -136 9 -16 31 -85 50 -154 41 -147 40
-201 -6 -228 -21 -13 -26 -22 -20 -37 8 -22 -14 -197 -32 -260 -7 -22 -13
-101 -14 -175 -1 -74 -5 -149 -9 -166 -6 -26 -4 -32 14 -37 17 -4 21 -13 22
-49 1 -23 0 -47 -1 -53 -3 -12 -8 -74 -9 -129 -1 -31 -4 -37 -13 -28 -21 21
-34 13 -36 -20 -2 -18 -9 -39 -16 -48 -7 -8 -16 -22 -20 -30 -3 -8 -3 14 0 50
3 35 9 71 14 80 11 21 4 178 -13 260 -9 44 -18 66 -29 68 -13 2 -17 -10 -23
-58 -5 -42 -14 -70 -30 -88 -21 -24 -24 -25 -30 -10 -4 10 2 46 14 80 12 34
21 79 21 100 0 44 14 50 28 11 l10 -28 11 28 c6 16 11 37 11 47 0 10 9 46 19
81 11 35 25 101 30 147 11 86 22 135 47 211 8 24 12 57 10 75 -3 17 -8 50 -10
73 -3 22 -7 52 -10 65 -17 84 -15 80 -44 74 -15 -4 -42 -23 -59 -43 -30 -33
-33 -42 -33 -102 0 -69 -44 -248 -66 -266 -6 -5 -18 -47 -25 -93 -11 -74 -11
-84 4 -99 17 -18 16 -18 39 47 4 10 9 6 18 -15 15 -37 6 -110 -17 -144 -10
-14 -22 -35 -28 -45 -17 -33 -33 -30 -37 6 -3 30 -23 40 -23 11 0 -6 -4 -15
-8 -19 -18 -18 -6 -76 21 -103 21 -21 26 -34 22 -57 -3 -16 -9 -27 -14 -24 -5
3 -14 -3 -20 -14 -8 -14 -8 -20 1 -23 8 -3 9 -10 4 -21 -5 -9 -14 -35 -21 -57
-7 -22 -26 -53 -41 -69 -16 -17 -29 -34 -29 -38 0 -5 -4 -6 -10 -3 -5 3 -10
15 -10 26 0 10 -5 19 -11 19 -16 0 -38 -31 -39 -54 0 -23 -29 -72 -94 -156
-71 -93 -96 -110 -96 -65 0 28 19 75 31 75 5 0 33 50 63 111 30 61 61 117 68
126 11 14 46 139 48 170 0 20 -47 -10 -66 -42 -31 -54 -57 -60 -49 -12 9 51
26 97 36 97 5 0 9 6 9 13 0 6 13 27 29 46 17 19 28 38 25 43 -3 4 0 8 5 8 6 0
11 9 11 19 0 21 40 112 60 136 7 8 10 15 6 15 -3 0 10 30 30 67 29 56 37 82
41 145 5 75 5 78 -19 87 -26 10 -28 25 -14 70 8 24 16 35 47 69 8 9 39 47 67
84 29 37 62 70 73 73 12 4 29 26 39 48 15 35 17 64 14 182 -2 77 1 192 7 256
l10 116 -40 74 c-47 86 -52 114 -18 104 12 -4 33 -17 45 -29z m1917 -178 c11
-22 34 -53 52 -67 18 -14 33 -32 33 -38 0 -11 12 -17 31 -15 3 1 12 -10 19
-23 8 -15 22 -25 35 -25 13 0 28 -12 40 -32 16 -29 17 -31 1 -19 -16 13 -143
17 -251 7 -16 -1 -37 4 -46 11 -23 19 -90 30 -120 20 -32 -13 -83 -1 -72 16 5
9 3 9 -8 1 -20 -15 -61 -16 -52 -1 4 7 8 15 8 19 0 11 15 22 15 10 0 -8 8 -8
30 -1 31 11 39 24 18 31 -7 3 -4 11 9 24 37 33 49 41 72 49 14 4 20 12 17 21
-4 10 3 14 24 14 17 0 30 4 30 8 0 10 48 30 75 31 14 0 26 -12 40 -41z m589
-97 c41 -56 44 -65 15 -58 -17 4 -18 3 -8 -9 10 -12 9 -13 -5 -8 -12 5 -16 14
-12 28 4 14 -2 27 -17 39 -12 10 -16 16 -9 12 7 -4 12 0 12 9 0 9 -7 16 -15
16 -8 0 -15 5 -15 10 0 22 20 8 54 -39z m-524 -706 l0 -555 -660 0 -660 0 0
555 0 555 660 0 660 0 0 -555z m262 541 c9 -4 21 -22 27 -39 l11 -32 -21 28
c-12 15 -30 27 -43 27 -12 0 -30 6 -41 13 -16 13 -15 14 16 12 19 -1 42 -5 51
-9z m-1682 -6 c0 -5 -2 -10 -4 -10 -3 0 -8 5 -11 10 -3 6 -1 10 4 10 6 0 11
-4 11 -10z m1479 -119 c20 -16 61 -40 91 -54 30 -13 60 -30 66 -38 15 -19 26
-51 15 -45 -4 3 -28 7 -52 9 -79 8 -169 74 -169 126 0 17 3 31 6 31 3 0 23
-13 43 -29z m-1451 2 c8 -16 24 -108 39 -223 2 -19 9 -45 15 -56 6 -13 7 -41
4 -65 -16 -101 -18 -151 -7 -162 7 -7 11 -88 11 -244 0 -195 2 -233 14 -233
11 0 13 -7 6 -31 -5 -16 -6 -37 -3 -45 3 -8 0 -14 -6 -14 -6 0 -11 -17 -11
-39 0 -34 5 -44 35 -67 38 -28 43 -41 21 -46 -12 -3 -12 -8 1 -39 11 -29 21
-38 46 -42 62 -10 103 -24 145 -50 23 -15 48 -27 56 -27 8 0 18 -10 21 -22 4
-13 17 -34 29 -48 82 -93 163 -281 169 -392 3 -66 2 -68 -20 -68 -46 0 -109
43 -202 139 -65 66 -94 104 -95 121 -1 28 -54 116 -87 146 -26 23 -81 105 -76
111 3 2 14 -8 26 -23 34 -44 24 -11 -12 37 -18 24 -38 57 -45 72 -7 15 -17 25
-22 22 -6 -3 -10 1 -10 9 0 9 -2 16 -4 16 -2 0 -12 3 -20 6 -15 6 -16 -8 -14
-120 2 -69 6 -126 11 -126 4 0 7 15 8 33 0 17 4 41 9 52 6 15 9 6 11 -35 6
-118 5 -150 -1 -150 -4 0 -5 -19 -3 -43 3 -23 1 -58 -4 -77 -11 -42 -6 -81 8
-59 6 10 9 8 9 -9 0 -13 -4 -20 -10 -17 -11 7 -17 -5 -24 -50 -2 -16 -5 -32
-6 -35 -1 -3 -2 -8 -1 -12 0 -5 -15 -8 -35 -8 -34 0 -36 2 -30 26 6 24 13 75
21 159 2 30 18 44 30 26 13 -22 25 -10 25 23 0 25 -5 35 -17 38 -14 3 -18 17
-21 88 -4 129 -7 164 -13 175 -10 18 -3 81 14 114 21 41 9 106 -22 128 -21 14
-29 53 -11 53 6 0 10 19 10 43 0 24 5 48 11 54 8 8 6 23 -4 54 -13 37 -13 50
-1 89 8 25 13 79 13 120 0 41 4 88 11 105 13 35 7 192 -11 275 -7 30 -13 64
-13 75 -1 11 -4 25 -7 30 -3 6 -6 23 -7 38 -1 15 -6 36 -12 47 -10 18 3 74 21
95 5 5 9 24 9 42 0 36 14 43 28 16z m1716 -33 c4 -25 3 -31 -4 -20 -5 8 -10
26 -10 39 0 32 6 24 14 -19z m-4904 -119 c0 -6 -4 -13 -10 -16 -5 -3 -10 1
-10 9 0 9 5 16 10 16 6 0 10 -4 10 -9z m4822 -43 c-6 -6 -15 -8 -19 -4 -4 4
-1 11 7 16 19 12 27 3 12 -12z m-4866 -79 c11 -18 9 -248 -3 -260 -11 -11 -27
21 -38 81 -4 19 -13 42 -20 50 -21 25 -23 44 -7 75 27 56 53 77 68 54z m2394
-233 c0 -28 -48 -117 -76 -141 -28 -24 -29 -24 -36 -4 -8 22 17 89 33 89 5 0
9 5 9 10 0 6 7 22 16 35 18 27 54 34 54 11z m-150 -233 c0 -14 -4 -21 -10 -18
-5 3 -10 2 -10 -3 0 -18 -29 -21 -66 -8 l-37 12 34 24 c19 14 35 28 37 32 2 4
14 2 28 -4 16 -7 24 -19 24 -35z m-130 -32 c0 -6 -4 -13 -10 -16 -5 -3 -10 1
-10 9 0 9 5 16 10 16 6 0 10 -4 10 -9z m766 -103 c-9 -17 -16 -39 -16 -50 0
-10 -7 -18 -15 -18 -8 0 -15 7 -15 15 0 20 27 84 43 103 20 24 22 -12 3 -50z
m968 -149 c68 -102 237 -450 299 -614 14 -38 35 -108 47 -155 12 -47 23 -93
26 -102 5 -16 -2 -18 -54 -18 -57 0 -60 1 -67 27 -9 38 -167 362 -213 438 -20
33 -56 81 -79 106 -24 26 -66 83 -93 128 -50 84 -89 136 -149 197 l-33 35 145
-2 146 -1 25 -39z m532 -4 c26 -17 55 -98 84 -230 12 -55 30 -131 40 -170 10
-38 20 -88 23 -110 3 -22 10 -71 16 -110 5 -38 12 -114 16 -168 l5 -97 -60 0
-60 0 0 35 c0 41 -25 221 -45 320 -15 74 -16 81 -40 215 -9 47 -26 135 -39
195 -13 61 -21 116 -19 123 7 16 54 15 79 -3z m-969 -20 c32 -13 34 -17 22
-33 -7 -9 -14 -18 -15 -20 -5 -7 -55 32 -65 49 -12 24 7 25 58 4z m1391 -97
c6 -7 20 -50 31 -96 11 -46 28 -100 38 -120 18 -38 128 -181 150 -195 7 -4 13
-17 13 -27 0 -11 9 -24 20 -30 11 -6 20 -17 20 -25 0 -8 7 -15 15 -15 8 0 15
-7 15 -15 0 -8 11 -17 25 -21 14 -3 22 -10 20 -15 -3 -4 3 -17 15 -29 11 -11
20 -24 20 -30 0 -5 5 -10 10 -10 13 0 51 -61 44 -72 -3 -4 1 -11 10 -14 8 -3
22 -17 31 -30 15 -23 14 -24 -7 -24 -22 0 -41 24 -101 125 -32 54 -50 75 -60
74 -31 -3 -57 18 -91 74 -47 80 -97 149 -102 144 -2 -2 10 -48 26 -103 28 -89
48 -170 70 -276 l7 -38 -58 0 -59 0 0 49 c0 27 -9 95 -20 150 -12 56 -17 107
-13 114 11 18 5 75 -17 147 -77 258 -91 320 -73 320 6 0 15 -6 21 -12z m-2329
-164 c-21 -44 -23 -46 -26 -23 -2 14 6 52 19 85 l23 59 3 -36 c2 -21 -6 -55
-19 -85z m926 56 c8 0 19 -10 26 -21 10 -20 9 -21 -17 -15 -38 10 -48 21 -39
43 5 12 9 14 12 6 3 -7 11 -13 18 -13z m103 -32 c15 -35 1 -36 -35 -2 -18 16
-22 24 -10 20 11 -4 17 0 17 11 0 21 12 8 28 -29z m74 -44 c17 -6 32 -33 24
-41 -6 -7 -66 39 -66 50 0 5 6 6 13 3 6 -3 20 -9 29 -12z m-253 -49 c0 -5 -6
-1 -14 9 -8 11 -15 24 -15 30 0 5 7 1 15 -10 8 -10 14 -23 14 -29z m-165 -79
c-10 -31 -21 -56 -26 -56 -12 0 -10 13 13 69 28 67 36 59 13 -13z m193 -128
c-3 -7 -5 -2 -5 12 0 14 2 19 5 13 2 -7 2 -19 0 -25z m10 -40 c-3 -8 -6 -5 -6
6 -1 11 2 17 5 13 3 -3 4 -12 1 -19z m-63 -34 c3 -8 2 -12 -4 -9 -6 3 -10 10
-10 16 0 14 7 11 14 -7z m91 -45 c3 -15 31 -53 62 -85 31 -33 55 -63 54 -68
-3 -12 30 -46 40 -41 4 3 10 1 14 -5 4 -7 -37 -10 -121 -10 l-127 0 9 63 c5
34 9 89 10 122 1 78 0 75 29 62 13 -7 27 -24 30 -38z m1771 -96 c26 -43 55
-86 63 -97 15 -17 15 -18 -3 -15 -16 4 -41 42 -101 153 -8 16 -15 31 -15 33 0
12 15 -7 56 -74z m1889 50 c3 -16 12 -51 20 -79 26 -90 38 -84 -160 -84 -160
0 -175 2 -176 18 -6 75 -3 85 22 104 29 22 192 65 251 67 33 1 38 -2 43 -26z
m-1955 1 c0 -8 -4 -12 -10 -9 -5 3 -10 10 -10 16 0 5 5 9 10 9 6 0 10 -7 10
-16z m-1220 -60 c0 -24 32 -65 46 -60 7 3 16 1 19 -4 4 -6 -2 -10 -12 -11 -10
0 -13 -3 -5 -6 19 -8 14 -23 -8 -23 -13 0 -20 7 -20 20 0 11 -4 20 -9 20 -5 0
-13 15 -16 33 -4 17 -12 38 -18 45 -7 9 -6 11 7 6 9 -3 16 -13 16 -20z m2804
-36 c9 -12 16 -33 16 -45 0 -23 -1 -23 -147 -23 -172 0 -176 8 -28 58 110 37
139 39 159 10z"/>
<path d="M13703 2996 c8 -48 31 -76 49 -58 17 17 0 60 -31 81 l-24 16 6 -39z"/>
<path d="M13797 2923 c-4 -3 -7 -15 -7 -25 0 -13 -10 -20 -30 -24 -32 -7 -35
-11 -21 -32 12 -20 44 -11 56 16 6 13 19 22 32 22 26 0 27 3 13 31 -11 19 -31
25 -43 12z"/>
<path d="M13690 2867 c0 -18 89 -162 100 -162 24 0 26 72 3 79 -26 8 -83 59
-83 74 0 7 -4 12 -10 12 -5 0 -10 -1 -10 -3z"/>
<path d="M17525 1270 c3 -5 8 -10 11 -10 2 0 4 5 4 10 0 6 -5 10 -11 10 -5 0
-7 -4 -4 -10z"/>
<path d="M17295 1260 c-3 -6 1 -7 9 -4 18 7 21 14 7 14 -6 0 -13 -4 -16 -10z"/>
<path d="M17319 1214 c-32 -17 -9 -24 29 -9 17 8 32 16 32 17 0 8 -42 3 -61
-8z"/>
<path d="M17185 1140 c-3 -6 1 -7 9 -4 18 7 21 14 7 14 -6 0 -13 -4 -16 -10z"/>
<path d="M17080 1095 c0 -8 5 -15 10 -15 6 0 10 7 10 15 0 8 -4 15 -10 15 -5
0 -10 -7 -10 -15z"/>
<path d="M16870 1041 c0 -6 -13 -18 -29 -27 -17 -10 -28 -21 -25 -26 3 -4 -2
-8 -10 -8 -9 0 -16 -4 -16 -10 0 -14 11 -12 31 6 9 8 26 16 36 17 15 1 20 8
20 29 0 15 -2 28 -4 28 -1 0 -3 -4 -3 -9z"/>
<path d="M15515 979 c-12 -19 3 -22 27 -5 l22 16 -21 0 c-12 0 -25 -5 -28 -11z"/>
<path d="M13860 1951 c0 -61 4 -101 10 -101 6 0 10 23 10 50 0 28 4 50 9 50 5
0 15 -22 22 -50 19 -74 41 -63 66 35 7 27 9 23 13 -28 8 -95 25 -72 28 41 2
93 1 102 -16 102 -14 0 -22 -15 -36 -70 -10 -39 -22 -72 -26 -75 -4 -2 -16 28
-27 68 -13 49 -25 73 -36 75 -15 3 -17 -8 -17 -97z"/>
<path d="M14050 1944 l0 -105 37 3 c46 4 58 28 14 28 -29 0 -31 3 -31 35 0 30
3 35 24 35 37 0 42 19 7 26 -26 6 -31 11 -31 35 0 26 4 29 30 29 17 0 30 5 30
10 0 6 -18 10 -40 10 l-40 0 0 -106z"/>
<path d="M14160 1944 c0 -121 17 -135 22 -19 l3 70 28 -72 c42 -106 57 -98 57
27 0 60 -4 100 -10 100 -6 0 -10 -31 -10 -72 0 -39 -3 -68 -7 -64 -4 4 -19 34
-33 68 -40 95 -50 87 -50 -38z"/>
<path d="M14314 2042 c-33 -22 -22 -79 20 -101 18 -10 26 -22 26 -42 0 -30
-17 -41 -49 -32 -24 6 -29 -12 -5 -21 72 -28 110 84 39 116 -37 17 -32 62 8
66 15 2 27 8 27 13 0 11 -50 12 -66 1z"/>
<path d="M13883 1435 c0 -66 1 -71 6 -31 8 69 31 74 31 7 0 -28 5 -51 10 -51
11 0 13 52 3 88 -4 17 -11 22 -24 19 -13 -4 -19 2 -22 22 -2 14 -4 -10 -4 -54z"/>
<path d="M13802 1488 c-19 -19 -14 -36 14 -54 32 -21 30 -59 -3 -58 -13 0 -23
-3 -23 -8 0 -14 47 -9 60 7 15 19 4 52 -21 60 -28 9 -26 52 4 58 20 4 20 4 2
6 -12 0 -26 -4 -33 -11z"/>
<path d="M14172 1428 l1 -73 6 59 6 60 23 -57 c13 -31 28 -57 33 -57 5 0 8 33
7 73 -1 62 -2 65 -5 20 -2 -29 -7 -53 -11 -53 -4 0 -16 23 -27 50 -11 28 -23
50 -27 50 -4 0 -7 -33 -6 -72z"/>
<path d="M13964 1456 c-3 -8 -4 -31 -2 -52 3 -34 6 -39 28 -39 20 0 26 6 28
29 6 46 -6 76 -29 76 -11 0 -22 -6 -25 -14z m41 -42 c0 -28 -4 -39 -15 -39
-16 0 -26 45 -16 72 11 28 31 7 31 -33z"/>
<path d="M14051 1386 c1 -50 4 -69 8 -51 4 21 12 30 26 30 17 0 20 7 20 50 0
48 -1 50 -27 51 l-28 1 1 -81z m44 28 c0 -28 -4 -39 -15 -39 -16 0 -26 45 -16
72 11 28 31 7 31 -33z"/>
<path d="M14278 1445 c-15 -34 0 -80 27 -80 27 0 42 46 27 80 -6 14 -19 25
-27 25 -8 0 -21 -11 -27 -25z m48 -9 c8 -31 -3 -66 -21 -66 -8 0 -17 9 -20 21
-9 29 2 69 20 69 8 0 17 -11 21 -24z"/>
<path d="M14356 1435 c7 -57 14 -76 25 -70 5 4 9 17 9 31 0 13 5 24 10 24 6 0
10 -11 10 -24 0 -14 4 -27 9 -31 11 -6 18 13 25 70 l6 40 -14 -45 -13 -45 -7
43 c-4 23 -11 42 -16 42 -5 0 -12 -19 -16 -42 l-7 -43 -13 45 -14 45 6 -40z"/>
<path d="M13450 855 c0 -18 19 -40 26 -32 4 4 0 15 -9 24 -9 10 -17 13 -17 8z"/>
<path d="M13695 650 c10 -11 25 -20 34 -20 12 1 10 5 -8 20 -30 26 -49 26 -26
0z"/>
<path d="M13651 523 c19 -25 31 -33 49 -33 9 0 3 10 -15 25 -35 28 -53 33 -34
8z"/>
<path d="M13398 525 c-8 -8 3 -55 13 -55 5 0 6 12 3 28 -8 32 -9 34 -16 27z"/>
<path d="M13640 474 c0 -6 7 -19 16 -30 14 -18 14 -18 3 6 -14 31 -19 36 -19
24z"/>
<path d="M13695 470 c3 -5 13 -10 21 -10 8 0 12 5 9 10 -3 6 -13 10 -21 10 -8
0 -12 -4 -9 -10z"/>
<path d="M13720 426 c0 -8 5 -18 10 -21 6 -3 10 1 10 9 0 8 -4 18 -10 21 -5 3
-10 -1 -10 -9z"/>
<path d="M13730 381 c0 -16 57 -77 65 -70 10 10 -30 74 -48 77 -10 2 -17 -1
-17 -7z"/>
<path d="M13820 253 c0 -10 4 -24 9 -31 7 -11 9 -10 15 3 3 9 -1 23 -9 31 -13
14 -15 13 -15 -3z"/>
<path d="M13860 210 c0 -11 4 -20 8 -20 4 0 8 9 9 20 1 11 -2 20 -8 20 -5 0
-9 -9 -9 -20z"/>
<path d="M13933 863 c9 -9 19 -14 23 -11 10 10 -6 28 -24 28 -15 0 -15 -1 1
-17z"/>
</g>
</svg>
